<svg id="Layer_1" data-name="Layer 1"
  xmlns="http://www.w3.org/2000/svg"
  xmlns:xlink="http://www.w3.org/1999/xlink" viewBox="0 0 400 600">
  <defs>
    <radialGradient id="radial-gradient" cx="374.58" cy="641.29" r="1152.23" gradientTransform="translate(0 -8.09) scale(1 1.01)" gradientUnits="userSpaceOnUse">
      <stop offset="0.14" stop-color="#81B8E1"/>
      <stop offset="0.77" stop-color="#4273BA"/>
    </radialGradient>
    <radialGradient id="radial-gradient-2" cx="240.65" cy="482.09" r="106.05" gradientUnits="userSpaceOnUse">
      <stop offset="0.19" stop-color="#fff"/>
      <stop offset="1" stop-color="#fff" stop-opacity="0"/>
    </radialGradient>
    <clipPath id="clip-path">
      <rect y="1.82" width="400" height="600" fill="none"/>
    </clipPath>
    <radialGradient id="radial-gradient-3" cx="104.42" cy="489.79" r="42.13" gradientTransform="matrix(1, 0, 0, 1, 0, 0)" xlink:href="#radial-gradient"/>
    <radialGradient id="radial-gradient-4" cx="49.07" cy="489.79" r="42.13" gradientTransform="matrix(1, 0, 0, 1, 0, 0)" xlink:href="#radial-gradient"/>
    <radialGradient id="radial-gradient-5" cx="-6.29" cy="489.79" r="42.13" gradientTransform="matrix(1, 0, 0, 1, 0, 0)" xlink:href="#radial-gradient"/>
    <radialGradient id="radial-gradient-6" cx="142.55" cy="495.34" r="65.23" gradientUnits="userSpaceOnUse">
      <stop offset="0.14" stop-color="#f1d3ca"/>
      <stop offset="0.77" stop-color="#a7e3eb"/>
      <stop offset="0.94" stop-color="#a7e3eb"/>
    </radialGradient>
  </defs>
  <title>Landscape Vector Pack - Scene 6</title>
  <rect y="-1.82" width="400" height="603.65" fill="url(#radial-gradient)"/>
  <circle cx="240.65" cy="482.09" r="106.05" fill="url(#radial-gradient-2)"/>
  <g opacity="0.79">
  </g>
  <g clip-path="url(#clip-path)">
    <polygon points="406.58 411.86 358.58 440.76 321.42 436.63 283.19 465.15 267.74 466.05 219.74 497.66 178.33 497.66 128.39 455.21 86.58 428.37 52.52 408.76 16.39 414.95 -7.36 396.89 -7.36 527.47 421.03 527.47 406.58 411.86" fill="#1E58B4"/>
    <path d="M400,386.75c-20.68,25.61-42.45,37.46-42.45,37.46l-35.61,30L207.35,486.61l-57.29,43.64-49.54,21.48h144l-8,13.93H363.74l-44.9,36.16H461.29Z" fill="none"/>
    <polygon points="-7.87 447.52 43.23 427.86 79.34 437.14 116.39 467.34 147.93 455.56 176.77 470.82 200 467.34 246.45 501.02 278.97 487.08 318.45 504.5 362.58 470.82 385.81 468.5 410.19 441.79 410.19 604.37 0 604.37 -7.87 447.52" fill="#173970"/>
    <polygon points="410.19 512.7 410.19 579.37 0 579.37 0 511.98 410.19 512.7" fill="#172D4B"/>
    <path d="M-1.68,545a23.23,23.23,0,1,1,46.45,0v26.32H-1.58Z" fill="#173970"/>
    <path d="M61.42,545a23.23,23.23,0,1,1,46.45,0v26.32H61.52Z" fill="#173970"/>
    <path d="M124.52,545A23.23,23.23,0,1,1,171,545v26.32H124.61Z" fill="#173970"/>
    <path d="M187.61,545a23.23,23.23,0,1,1,46.45,0v26.32H187.71Z" fill="#173970"/>
    <path d="M250.71,545a23.23,23.23,0,1,1,46.45,0v26.32H250.81Z" fill="#173970"/>
    <path d="M313.81,545a23.23,23.23,0,1,1,46.45,0v26.32H313.9Z" fill="#173970"/>
    <path d="M376.9,545a23.23,23.23,0,1,1,46.45,0v26.32H377Z" fill="#173970"/>
    <polygon points="43.23 549.96 410.19 522.82 410.19 611.08 0 611.08 0 549.14 43.23 549.96" fill="#0C1F39"/>
    <rect x="100.43" y="497.79" width="44.9" height="8.06" fill="url(#radial-gradient-3)"/>
    <path d="M148.17,504.21l-.37-3.27a6,6,0,0,0-6-5.34H104.38a6,6,0,0,0-6,5.34L98,504.21l-1,8.61h52.06Zm-46.78-2.94a3,3,0,0,1,3-2.67h37.45a3,3,0,0,1,3,2.67l.33,2.94H101.06Z" fill="#0C1F39"/>
    <polygon points="145.78 509.82 100.43 509.82 101.06 504.21 145.15 504.21 145.78 509.82" fill="#0C1F39"/>
    <rect x="107.29" y="497.15" width="1.55" height="8.71" fill="#0C1F39"/>
    <rect x="114.65" y="497.15" width="1.55" height="8.71" fill="#0C1F39"/>
    <rect x="122" y="497.15" width="1.55" height="8.71" fill="#0C1F39"/>
    <rect x="129.36" y="497.15" width="1.55" height="8.71" fill="#0C1F39"/>
    <rect x="136.71" y="497.15" width="1.55" height="8.71" fill="#0C1F39"/>
    <rect x="45.07" y="497.79" width="44.9" height="8.06" fill="url(#radial-gradient-4)"/>
    <path d="M92.81,504.21l-.37-3.27a6,6,0,0,0-6-5.34H49a6,6,0,0,0-6,5.34l-.37,3.27-1,8.61H93.77ZM46,501.27a3,3,0,0,1,3-2.67H86.47a3,3,0,0,1,3,2.67l.33,2.94H45.7Z" fill="#0C1F39"/>
    <polygon points="90.42 509.82 45.07 509.82 45.7 504.21 89.79 504.21 90.42 509.82" fill="#0C1F39"/>
    <rect x="51.94" y="497.15" width="1.55" height="8.71" fill="#0C1F39"/>
    <rect x="59.29" y="497.15" width="1.55" height="8.71" fill="#0C1F39"/>
    <rect x="66.65" y="497.15" width="1.55" height="8.71" fill="#0C1F39"/>
    <rect x="74" y="497.15" width="1.55" height="8.71" fill="#0C1F39"/>
    <rect x="81.36" y="497.15" width="1.55" height="8.71" fill="#0C1F39"/>
    <rect x="-10.28" y="497.79" width="44.9" height="8.06" fill="url(#radial-gradient-5)"/>
    <path d="M37.46,504.21l-.37-3.27a6,6,0,0,0-6-5.34H-6.33a6,6,0,0,0-6,5.34l-.37,3.27-1,8.61H38.42Zm-46.78-2.94a3,3,0,0,1,3-2.67H31.12a3,3,0,0,1,3,2.67l.33,2.94H-9.65Z" fill="#0C1F39"/>
    <polygon points="35.07 509.82 -10.28 509.82 -9.65 504.21 34.44 504.21 35.07 509.82" fill="#0C1F39"/>
    <rect x="3.94" y="497.15" width="1.55" height="8.71" fill="#0C1F39"/>
    <rect x="11.29" y="497.15" width="1.55" height="8.71" fill="#0C1F39"/>
    <rect x="18.65" y="497.15" width="1.55" height="8.71" fill="#0C1F39"/>
    <rect x="26" y="497.15" width="1.55" height="8.71" fill="#0C1F39"/>
    <path d="M208,504.21H155.52v-7.07l45.92.54c.52.29,1.61.07,2.1.42a12.33,12.33,0,0,1,2.29,2.08l2.62,3.1Z" fill="url(#radial-gradient-6)"/>
    <path d="M184.13,503.28v2.57h1.55v-2.57Zm0-6.14v1h1.55v-1Zm-7.35,6.14v2.57h1.55v-2.57Zm0-6.14v1h1.55v-1Z" fill="#0C1F39"/>
    <path d="M208.82,512.82h-57l1.08-9.54.35-3.1c.3-2.68,2.82-4.58,5.88-4.58H196.6a12.73,12.73,0,0,1,6.94,2.5H185.68v-1h-1.55v1h-5.8v-1h-1.55v1H171v5.18h5.81v2.57h1.55v-2.57h5.8v2.57h1.55v-2.57h22.77l3.1,3.68A3.56,3.56,0,0,1,208.82,512.82Z" fill="#0C1F39"/>
    <rect x="176.78" y="497.14" width="1.55" height="8.71" fill="#0C1F39"/>
    <rect x="184.13" y="497.14" width="1.55" height="8.71" fill="#0C1F39"/>
    <path d="M311.85,568.08l38.83-16-32.49,26.4h0a51.64,51.64,0,0,0,91.28-42l-19-2.77,16.8-4.92a49.43,49.43,0,0,0-2.14-5l-20.47,6.81L400.39,516a51.1,51.1,0,0,0-12.55-12.07l-9,9.42,4.19-12.28a49.57,49.57,0,0,0-6-2.72L361.33,537l3.92-41.53a48.45,48.45,0,0,0-5-.38l-2.12,13.47-3.75-13.31a51.21,51.21,0,0,0-16.87,4.41l17.25,41.23-27.9-34.75a52.37,52.37,0,0,0-4.25,3.72l8,12.82-12.24-8.07A51,51,0,0,0,310,530l19.28,9.65-21.46-.72a52.41,52.41,0,0,0-.58,7.09l6.77,1.19L307.25,549a51.94,51.94,0,0,0,1.4,9.87l8.08-2.06-7.06,5.7a52.49,52.49,0,0,0,2.18,5.59Z" fill="#0C1F39"/>
    <path d="M-9,559.72,28.82,578l-41.34-6.64h0a51.65,51.65,0,0,0,92.11,40.13L69,595.54l14.86,9.24a51.13,51.13,0,0,0,2.29-4.91L67.45,589.14l21.4,1.93a51.35,51.35,0,0,0,.64-17.4l-13-.41,12-5a50.27,50.27,0,0,0-2-6.28l-39.27,14,33.57-24.74a48.11,48.11,0,0,0-3-4l-11.46,7.4,7.43-11.67a51.07,51.07,0,0,0-14.53-9.64L40,573.61l7.33-44a51.74,51.74,0,0,0-5.61-.69l-4.24,14.5L35.3,529a51.23,51.23,0,0,0-17.12,4l5.64,20.81L10.07,537.27a52.51,52.51,0,0,0-5.68,4.29L8,547.4l-5.79-3.84a51.67,51.67,0,0,0-6.43,7.61l6.92,4.66-8.95-1.46A51.46,51.46,0,0,0-9,559.71Z" fill="#0C1F39"/>
  </g>
</svg>