<!-- <svg width="1920" height="1081" viewBox="0 0 1920 1081" xmlns="http://www.w3.org/2000/svg"> -->

<!-- <svg xmlns="http://www.w3.org/2000/svg"
  xmlns:xlink="http://www.w3.org/1999/xlink" width="1920" height="1081" viewBox="0 0 1920 1081">
  <defs>
    <radialGradient id="radial-gradient" cx="0" cy="0" r="1" gradientUnits="userSpaceOnUse" gradientTransform="translate(1489.54 1106.51) scale(3807.22 1429.03)">
      <stop offset="0.14" stop-color="#93D3F2"/>
      <stop offset="0.83" stop-color="#003399"/>
    </radialGradient>
    <clipPath id="clip-path">
      <rect width="100%" height="100%" fill="none"/>
    </clipPath>
    <linearGradient id="linear-gradient" x1="1285.08" y1="1729.23" x2="1109.73" y2="1362.26" gradientUnits="userSpaceOnUse">
      <stop offset="0" stop-color="#93d3f2"/>
      <stop offset="1" stop-color="#039"/>
    </linearGradient>
    <linearGradient id="linear-gradient-2" x1="253.12" y1="567.46" x2="216.73" y2="281.78" xlink:href="#linear-gradient"/>
  </defs>
  <rect width="1920" height="1081" fill="url(#radial-gradient)"/>
  <g clip-path="url(#clip-path)">
    <polygon points="-7.87 344.74 78.06 271.58 131.48 206.42 153.55 206.42 164 238.25 200 248.35 260.39 364.48 318.45 384.93 409.03 502.68 409.03 642.03 -7.87 642.03 -7.87 344.74" fill="#3b8fe2"/>
    <polygon points="389.05 476.71 366.84 534.03 362.97 488.74 129.94 438.94 150.06 389.65 200 356.35 158.91 221.54 200 248.35 260.38 364.48 318.45 384.93 389.05 476.71" fill="#56aaef"/>
    <polygon points="200.58 484.79 316.68 484.79 403.23 534.03 356.02 575.07 93.55 590.16 0 575.07 -0.13 510.42 138.45 470.16 200.58 484.79" fill="url(#linear-gradient)"/>
    <polygon points="368.39 484.79 148.9 505 118.32 496.87 165.55 484.79 368.39 484.79" fill="url(#linear-gradient-2)"/>
    <polygon points="128 583.97 -7.87 558.42 -7.87 612.98 122.18 612.98 128 583.97" fill="#0848af"/>
    <path d="M308,498.62S380,578.28,441.55,600V473.68Z" fill="#002663"/>
    <polygon points="344.84 551.59 355.46 517.93 334.22 517.93 344.84 551.59" fill="#002663"/>
    <polygon points="355.46 553.67 366.08 520.01 344.84 520.01 355.46 553.67" fill="#002663"/>
    <polygon points="371.27 575.38 381.89 541.73 360.65 541.73 371.27 575.38" fill="#002663"/>
    <polygon points="169.63 255.39 148.9 243.32 141.55 228.61 128 234.81 114.6 227.01 131.48 206.42 153.55 206.42 169.63 255.39" fill="#fff" opacity="0.57"/>
    <path d="M308,498s72-115,133.55-146.32V534Z" fill="#1d6dcc"/>
    <polygon points="344.84 421.58 355.46 470.16 334.22 470.16 344.84 421.58" fill="#1d6dcc"/>
    <polygon points="355.46 418.58 366.08 467.16 344.84 467.16 355.46 418.58" fill="#1d6dcc"/>
    <polygon points="371.27 387.24 381.89 435.82 360.65 435.82 371.27 387.24" fill="#1d6dcc"/>
    <polygon points="200.58 484.79 109.81 403.21 29.29 384.93 -24.9 351.71 -24.9 528.43 200.58 484.79" fill="#1358bc"/>
    <polygon points="136.58 401.5 147.2 450.08 125.96 450.08 136.58 401.5" fill="#1358bc"/>
    <polygon points="147.2 418.58 157.82 467.16 136.58 467.16 147.2 418.58" fill="#1358bc"/>
    <polygon points="98.24 378.46 108.86 427.05 87.62 427.05 98.24 378.46" fill="#1358bc"/>
    <polygon points="85.98 367.21 96.61 415.79 75.36 415.79 85.98 367.21" fill="#1358bc"/>
    <polygon points="59.27 373.4 69.89 421.98 48.66 421.98 59.27 373.4" fill="#1358bc"/>
    <polygon points="49.79 363.92 60.41 412.5 39.17 412.5 49.79 363.92" fill="#1358bc"/>
    <polygon points="148.9 505 33.94 430.68 -12.52 393.52 -12.52 546.81 148.9 505" fill="#0848af"/>
    <polygon points="95.66 433.19 82.56 493.09 108.75 493.09 95.66 433.19" fill="#0848af"/>
    <polygon points="103.33 486 118.2 490.44 110.28 454.21 103.33 486" fill="#0848af"/>
    <polygon points="25.96 388.42 9.58 463.33 42.34 463.33 25.96 388.42" fill="#0848af"/>
    <polygon points="42.34 456.38 57.02 460.76 49.2 424.98 42.34 456.38" fill="#0848af"/>
    <polygon points="119 499.01 130.47 502.44 124.36 474.5 119 499.01" fill="#0848af"/>
    <polygon points="148.9 505.24 33.94 552.47 -12.52 576.08 -12.52 478.68 148.9 505.24" fill="#002663"/>
    <polygon points="95.66 550.88 82.56 512.81 108.75 512.81 95.66 550.88" fill="#002663"/>
    <polygon points="103.33 517.32 118.2 514.5 110.28 537.52 103.33 517.32" fill="#002663"/>
    <polygon points="25.96 579.32 9.58 531.72 42.34 531.72 25.96 579.32" fill="#002663"/>
    <polygon points="42.34 536.14 57.02 533.35 49.2 556.09 42.34 536.14" fill="#002663"/>
    <polygon points="119 509.05 130.47 506.87 124.36 524.63 119 509.05" fill="#002663"/>
    <path d="M69.28,536.65,34,569.23l43.06-21h0a59.09,59.09,0,0,1-87.57,74.47l6.27-21-13.2,15a60.82,60.82,0,0,1-4.14-4.62L-4.66,594.2l-22.79,9.2a58.39,58.39,0,0,1-6.46-18.84l14.09-4.76-14.77-1.57a57.33,57.33,0,0,1,.08-7.53L13.12,573l-45-16c.58-1.81,1.25-3.58,2-5.33l15,4.3-12-10.32a58.44,58.44,0,0,1,12.71-15.37l34.45,37.78L-2.28,522.36a59.5,59.5,0,0,1,5.92-2.61l9.44,14.48-2.47-16.6a58.59,58.59,0,0,1,20.07-1.3L31.39,541,41,518.38a60.76,60.76,0,0,1,7.64,2.81l-2,7.6,5.07-6.12a59,59,0,0,1,9.57,6.2l-6,7.39,9.32-4.57a60.33,60.33,0,0,1,4.75,5Z" fill="#002663"/>
    <polygon points="24.39 607.44 159.09 539.59 281.63 559.84 317.08 539.59 381.89 585.16 381.89 626.68 24.39 607.44" fill="#039"/>
    <path d="M2.11,600.38l39-6.86L5.84,611.26h0a48.66,48.66,0,0,0,92.49-20.18L81.45,584.7l16.44-1.13a43.94,43.94,0,0,0-1-5l-20.21,2.13,17.41-10.33A48.13,48.13,0,0,0,85,556.71l-10.15,6.86,6.34-10.46a44.88,44.88,0,0,0-5-3.71L53.94,581.74l12-37.43c-1.48-.52-3-1-4.5-1.35l-4.67,12-.76-13a48.16,48.16,0,0,0-16.42.65L47.14,584,28.48,546.38A50.08,50.08,0,0,0,23.81,549l4.77,13.41-9.64-9.9A48.18,48.18,0,0,0,8.07,565l15.8,12.78-19.6-5a47.34,47.34,0,0,0-2,6.4l6,2.47-6.54.26A48.65,48.65,0,0,0,1,591.23L8.88,591l-7.64,3.82a49.46,49.46,0,0,0,.87,5.59Z" fill="#00183a"/>
    <path d="M96.57,639.09l39-6.86L100.29,650h0a48.66,48.66,0,0,0,92.49-20.18l-16.89-6.39,16.45-1.13a46.27,46.27,0,0,0-1-5l-20.21,2.13,17.41-10.33a48.13,48.13,0,0,0-9.12-13.64l-10.15,6.86,6.35-10.46a46,46,0,0,0-5-3.71L148.4,620.45l12-37.43c-1.48-.52-3-1-4.49-1.35l-4.68,12-.76-13a48.16,48.16,0,0,0-16.42.65l7.55,41.43-18.66-37.62a50.08,50.08,0,0,0-4.67,2.57L123,601.07l-9.63-9.91a48.24,48.24,0,0,0-10.88,12.51l15.8,12.78-19.6-5a48.81,48.81,0,0,0-2,6.4l6,2.47-6.55.26a48.65,48.65,0,0,0-.71,9.36l7.85-.26-7.64,3.82a49.46,49.46,0,0,0,.87,5.59Z" fill="#00183a"/>
    <polygon points="337.87 519.63 452.84 445.31 499.29 408.14 499.29 561.43 337.87 519.63" fill="#0848af"/>
    <polygon points="389.05 457.23 402.15 517.13 375.96 517.13 389.05 457.23" fill="#0848af"/>
    <polygon points="382.96 506.9 368.09 511.34 376.01 475.11 382.96 506.9" fill="#0848af"/>
    <polygon points="369.76 513.92 358.29 517.35 364.4 489.4 369.76 513.92" fill="#0848af"/>
    <path d="M352.15,564.25c30.22-33.1,56.88-61.57,56.88-61.57l32.52,116.9L381.9,647.45Z" fill="#039"/>
    <path d="M169.13,648.18l50.66-20.85-42.38,34.45h0A67.38,67.38,0,0,0,296.51,607l-24.75-3.62L293.67,597a67.25,67.25,0,0,0-2.79-6.5l-26.7,8.89,20.47-19.14a66.81,66.81,0,0,0-16.38-15.75l-11.69,12.29,5.47-16a64.65,64.65,0,0,0-7.82-3.55l-20.54,50.36,5.1-54.18c-2.15-.27-4.3-.44-6.47-.5l-2.77,17.57-4.89-17.36a66.8,66.8,0,0,0-22,5.76l22.51,53.78-36.4-45.33a68.18,68.18,0,0,0-5.55,4.86l10.44,16.72-16-10.53a66.57,66.57,0,0,0-11,20.13l25.16,12.59-28-.94a68.14,68.14,0,0,0-.76,9.25L171.9,621l-8.77,2.3A67.4,67.4,0,0,0,165,636.13l10.54-2.69-9.2,7.44a68.59,68.59,0,0,0,2.84,7.29Z" fill="#00183a"/>
    <polygon points="352.15 511.34 401.02 734.85 303.29 734.85 352.15 511.34" fill="#00183a"/>
    <polygon points="325.14 568.61 374 792.12 276.28 792.12 325.14 568.61" fill="#00183a"/>
    <polygon points="17.28 434.28 66.14 657.79 -31.58 657.79 17.28 434.28" fill="#00183a"/>
    <polygon points="374.77 522.38 423.64 745.9 325.91 745.9 374.77 522.38" fill="#00183a"/>
    <polygon points="396.85 522.38 445.71 745.9 347.99 745.9 396.85 522.38" fill="#00183a"/>
    <polygon points="169.63 255.39 184.13 245.39 203.6 255.27 200 248.35 158.91 221.54 169.63 255.39" fill="#fff" opacity="0.88"/>
  </g>
</svg> -->

<svg width="1920" height="813" viewBox="0 40 1920 813" fill="none"
  xmlns="http://www.w3.org/2000/svg">

  <rect width="1920" height="813" fill="url(#radial-gradient)"/>
  <path d="M-1.00024 262.248L198.727 126.714L322.891 6H374.188L398.477 64.9674L482.152 83.6785L622.516 298.818L757.465 336.703L968 554.844V813H-1.00024V262.248Z" fill="#3B8FE2"/>
  <path d="M921.333 503.707L870.018 610.64L861.076 526.15L322.667 433.245L369.153 341.293L484.538 279.17L389.601 27.676L484.538 77.6913L624.045 294.337L758.214 332.487L921.333 503.707Z" fill="#56AAEF"/>
  <path d="M962.784 605.43H1520.06L1935.5 694.144L1708.9 768.085L449.04 795.272L-2.33736e-05 768.085L-0.624023 651.607L664.56 579.072L962.784 605.43Z" fill="url(#paint0_linear_102:15)"/>
  <path d="M1768.27 605.43L714.72 641.842L567.936 627.194L794.64 605.43H1768.27Z" fill="url(#paint1_linear_102:15)"/>
  <path d="M614.4 784.119L-37.7759 738.087V836.386H586.464L614.4 784.119Z" fill="#0848AF"/>
  <path d="M1478.4 630.347C1478.4 630.347 1824 773.868 2119.44 813V585.414L1478.4 630.347Z" fill="#002663"/>
  <path d="M1655.23 725.781L1706.21 665.137H1604.26L1655.23 725.781Z" fill="#002663"/>
  <path d="M1706.21 729.529L1757.18 668.885H1655.23L1706.21 729.529Z" fill="#002663"/>
  <path d="M1782.1 768.643L1833.07 708.017H1731.12L1782.1 768.643Z" fill="#002663"/>
  <path opacity="0.57" d="M416 91.6344L367.782 69.1509L350.686 41.7497L319.168 53.2988L288 38.7693L327.263 0.415161H378.598L416 91.6344Z" fill="white"/>
  <path d="M1478.4 629.23C1478.4 629.23 1824 422.038 2119.44 365.61V694.09L1478.4 629.23Z" fill="#1D6DCC"/>
  <path d="M1655.23 491.547L1706.21 579.072H1604.26L1655.23 491.547Z" fill="#1D6DCC"/>
  <path d="M1706.21 486.142L1757.18 573.667H1655.23L1706.21 486.142Z" fill="#1D6DCC"/>
  <path d="M1782.1 429.677L1833.07 517.203H1731.12L1782.1 429.677Z" fill="#1D6DCC"/>
  <path d="M962.784 605.43L527.088 458.45L140.592 425.516L-119.52 365.664V684.055L962.784 605.43Z" fill="#1358BC"/>
  <path d="M655.584 455.369L706.56 542.894H604.608L655.584 455.369Z" fill="#1358BC"/>
  <path d="M706.56 486.142L757.536 573.667H655.584L706.56 486.142Z" fill="#1358BC"/>
  <path d="M471.552 413.859L522.528 501.402H420.576L471.552 413.859Z" fill="#1358BC"/>
  <path d="M412.704 393.59L463.728 481.115H361.728L412.704 393.59Z" fill="#1358BC"/>
  <path d="M284.496 404.742L335.472 492.267H233.568L284.496 404.742Z" fill="#1358BC"/>
  <path d="M238.992 387.663L289.968 475.188H188.016L238.992 387.663Z" fill="#1358BC"/>
  <path d="M714.72 641.842L162.912 507.942L-60.0959 440.992V717.169L714.72 641.842Z" fill="#0848AF"/>
  <path d="M459.168 512.464L396.288 620.384H522L459.168 512.464Z" fill="#0848AF"/>
  <path d="M495.984 607.61L567.36 615.609L529.344 550.335L495.984 607.61Z" fill="#0848AF"/>
  <path d="M124.608 431.803L45.9841 566.766H203.232L124.608 431.803Z" fill="#0848AF"/>
  <path d="M203.232 554.245L273.696 562.136L236.16 497.672L203.232 554.245Z" fill="#0848AF"/>
  <path d="M571.2 631.05L626.256 637.229L596.928 586.891L571.2 631.05Z" fill="#0848AF"/>
  <path d="M714.72 642.274L162.912 727.367L-60.0959 769.904V594.422L714.72 642.274Z" fill="#002663"/>
  <path d="M459.168 724.502L396.288 655.913H522L459.168 724.502Z" fill="#002663"/>
  <path d="M495.984 664.038L567.36 658.958L529.344 700.432L495.984 664.038Z" fill="#002663"/>
  <path d="M124.608 775.741L45.9841 689.982H203.232L124.608 775.741Z" fill="#002663"/>
  <path d="M203.232 697.946L273.696 692.919L236.16 733.889L203.232 697.946Z" fill="#002663"/>
  <path d="M571.2 649.138L626.256 645.211L596.928 677.208L571.2 649.138Z" fill="#002663"/>
  <path d="M332.544 698.865L163.2 757.563L369.888 719.728C398.802 741.065 407.712 765.437 395.18 788.91C382.649 812.382 349.407 833.583 300.822 849.092C252.237 864.6 191.145 873.509 127.41 874.381C63.6746 875.253 1.01636 868.037 -50.4479 853.898L-20.3519 816.063L-83.7119 843.088C-90.7088 840.442 -97.3414 837.664 -103.584 834.764L-22.3679 802.55L-131.76 819.126C-147.199 808.561 -157.687 797.08 -162.768 785.182L-95.1358 776.606L-166.032 773.778C-166.696 769.257 -166.568 764.725 -165.648 760.211L62.9761 764.355L-153.024 735.528C-150.24 732.267 -147.024 729.078 -143.424 725.925L-71.4239 733.673L-129.024 715.08C-113.065 704.605 -92.429 695.238 -68.0159 687.388L97.3441 755.455L-10.9439 673.119C-1.70608 671.359 7.77995 669.789 17.4722 668.416L62.7841 694.504L50.9281 664.597C82.4404 661.738 115.033 660.945 147.264 662.255L150.672 706.702L196.8 665.948C209.312 667.326 221.563 669.017 233.472 671.011L223.872 684.703L248.208 673.677C264.445 676.835 279.829 680.576 294.144 684.848L265.344 698.162L310.08 689.928C318.132 692.765 325.744 695.773 332.88 698.937L332.544 698.865Z" fill="#002663"/>
  <path d="M117.072 826.404L763.632 704.161L1351.82 740.645L1521.98 704.161L1833.07 786.263V861.068L117.072 826.404Z" fill="#003399"/>
  <path d="M10.1283 813.685L197.328 801.325L28.0323 833.287C50.827 851.049 88.9067 865.409 136.122 874.047C183.337 882.685 236.931 885.098 288.249 880.895C339.568 876.692 385.614 866.119 418.951 850.884C452.289 835.649 470.973 816.641 471.984 796.929L390.96 785.435L469.872 783.399C468.738 780.364 467.136 777.356 465.072 774.39L368.064 778.228L451.632 759.617C440.948 750.536 426.19 742.212 408 735.006L359.28 747.365L389.712 728.52C382.134 726.086 374.115 723.853 365.712 721.836L258.912 780.102L316.512 712.665C309.408 711.728 302.112 710.864 294.912 710.233L272.496 731.853L268.848 708.431C242.592 707.124 215.932 707.52 190.032 709.602L226.272 784.173L136.704 716.395C129.013 717.817 121.531 719.393 114.288 721.115L137.184 745.275L90.9123 727.439C70.191 733.754 52.5384 741.367 38.7363 749.942L114.576 772.967L20.4963 763.959C16.5742 767.712 13.3662 771.565 10.8963 775.489L39.6963 779.94L8.3043 780.408C5.70294 785.95 4.52953 791.573 4.8003 797.199L42.6243 796.785L5.9523 803.667C6.83122 807.052 8.2255 810.414 10.1283 813.739V813.685Z" fill="#00183A"/>
  <path d="M463.536 883.427L650.736 871.068L481.392 903.083C504.187 920.845 542.267 935.205 589.482 943.843C636.697 952.481 690.291 954.894 741.609 950.691C792.927 946.488 838.973 935.916 872.311 920.681C905.649 905.445 924.332 886.437 925.344 866.726L844.272 855.213L923.232 853.177C922.074 850.143 920.472 847.136 918.432 844.169L821.424 848.006L904.992 829.395C894.255 820.323 879.448 812.011 861.216 804.82L812.496 817.18L842.976 798.334C835.387 795.905 827.369 793.672 818.976 791.65L712.32 849.844L769.92 782.408C762.816 781.471 755.52 780.606 748.368 779.975L725.904 801.595L722.256 778.174C695.999 776.866 669.339 777.263 643.44 779.345L679.68 853.988L590.112 786.209C582.427 787.602 574.944 789.148 567.696 790.839L590.4 814.928L544.176 797.073C523.433 803.399 505.764 811.024 491.952 819.612L567.792 842.637L473.712 833.629C469.812 837.385 466.604 841.238 464.112 845.16L492.912 849.61L461.472 850.078C458.891 855.645 457.749 861.293 458.064 866.942L495.744 866.473L459.072 873.356C459.951 876.74 461.345 880.103 463.248 883.427H463.536Z" fill="#00183A"/>
  <path d="M1621.78 668.2L2173.63 534.3L2396.59 467.332V743.51L1621.78 668.2Z" fill="#0848AF"/>
  <path d="M1867.44 555.776L1930.32 663.696H1804.61L1867.44 555.776Z" fill="#0848AF"/>
  <path d="M1838.21 645.265L1766.83 653.264L1804.85 587.99L1838.21 645.265Z" fill="#0848AF"/>
  <path d="M1774.85 657.913L1719.79 664.092L1749.12 613.736L1774.85 657.913Z" fill="#0848AF"/>
  <path d="M1690.32 748.591C1835.38 688.955 1963.34 637.662 1963.34 637.662L2119.44 848.277L1833.12 898.489L1690.32 748.591Z" fill="#003399"/>
  <path d="M811.824 899.804L1054.99 862.24L851.568 924.307C896.452 945.797 959.327 960.979 1030.03 967.401C1100.74 973.823 1175.15 971.109 1241.25 959.699C1307.34 948.289 1361.25 928.848 1394.28 904.517C1427.3 880.187 1437.51 852.388 1423.25 825.612L1304.45 819.09L1409.62 807.595C1405.7 803.606 1401.23 799.697 1396.22 795.884L1268.06 811.901L1366.32 777.417C1344.62 766.343 1318.03 756.745 1287.7 749.041L1231.58 771.183L1257.84 742.357C1245.72 739.915 1233.18 737.778 1220.3 735.961L1121.71 826.693L1146.19 729.078C1135.87 728.592 1125.55 728.286 1115.14 728.178L1101.84 759.833L1078.37 728.556C1041.85 729.724 1006.13 733.234 972.768 738.934L1080.82 835.827L906.096 754.158C896.802 756.894 887.908 759.817 879.456 762.914L929.568 793.038L852.768 774.066C829.71 784.917 811.844 797.189 799.968 810.334L920.736 833.017L786.336 831.323C784.112 836.841 782.893 842.409 782.688 847.988L825.12 850.835L783.024 854.979C784.03 862.774 787.036 870.515 792 878.094L842.592 873.248L798.432 886.652C802.307 891.124 806.858 895.509 812.064 899.786L811.824 899.804Z" fill="#00183A"/>
  <path d="M1690.32 653.264L1924.9 1055.95H1455.79L1690.32 653.264Z" fill="#00183A"/>
  <path d="M1560.67 756.446L1795.2 1159.14H1326.14L1560.67 756.446Z" fill="#00183A"/>
  <path d="M82.944 514.428L317.472 917.118H-151.584L82.944 514.428Z" fill="#00183A"/>
  <path d="M1798.9 673.155L2033.47 1075.86H1564.37L1798.9 673.155Z" fill="#00183A"/>
  <path d="M1904.88 673.155L2139.41 1075.86H1670.35L1904.88 673.155Z" fill="#00183A"/>
  <path opacity="0.88" d="M415.614 91.6343L449.357 72.7397L494.667 91.4076L486.289 78.3325L390.667 27.676L415.614 91.6343Z" fill="white"/>
  <defs>
  <radialGradient id="radial-gradient" cx="0" cy="0" r="1" gradientUnits="userSpaceOnUse" gradientTransform="translate(1289.54 1006.51) scale(3807.22 1429.03)">
    <stop offset="0.14" stop-color="#93D3F2"/>
    <stop offset="0.83" stop-color="#003399"/>
  </radialGradient>
    <linearGradient id="paint0_linear_102:15" x1="1368.38" y1="1045.83" x2="1227.27" y2="259.024" gradientUnits="userSpaceOnUse">
      <stop stop-color="#93D3F2"/>
      <stop offset="1" stop-color="#003399"/>
    </linearGradient>
    <linearGradient id="paint1_linear_102:15" x1="304397" y1="21267.6" x2="304356" y2="10696.9" gradientUnits="userSpaceOnUse">
      <stop stop-color="#93D3F2"/>
      <stop offset="1" stop-color="#003399"/>
    </linearGradient>
  </defs>
</svg>
