<svg
  xmlns="http://www.w3.org/2000/svg"
  xmlns:xlink="http://www.w3.org/1999/xlink" viewBox="0 0 400 600">
  <defs>
    <radialGradient id="radial-gradient" cx="310.32" cy="614.16" r="793.17" gradientUnits="userSpaceOnUse">
      <stop offset="0.14" stop-color="#93d3f2"/>
      <stop offset="0.83" stop-color="#039"/>
    </radialGradient>
    <clipPath id="clip-path">
      <rect width="100%" height="100%" fill="none"/>
    </clipPath>
    <linearGradient id="linear-gradient" x1="285.08" y1="729.23" x2="109.73" y2="362.26" gradientUnits="userSpaceOnUse">
      <stop offset="0" stop-color="#93d3f2"/>
      <stop offset="1" stop-color="#039"/>
    </linearGradient>
    <linearGradient id="linear-gradient-2" x1="253.12" y1="567.46" x2="216.73" y2="281.78" xlink:href="#linear-gradient"/>
  </defs>
  <rect width="400" height="600" fill="url(#radial-gradient)"/>
  <g clip-path="url(#clip-path)">
    <polygon points="-7.87 344.74 78.06 271.58 131.48 206.42 153.55 206.42 164 238.25 200 248.35 260.39 364.48 318.45 384.93 409.03 502.68 409.03 642.03 -7.87 642.03 -7.87 344.74" fill="#3b8fe2"/>
    <polygon points="389.05 476.71 366.84 534.03 362.97 488.74 129.94 438.94 150.06 389.65 200 356.35 158.91 221.54 200 248.35 260.38 364.48 318.45 384.93 389.05 476.71" fill="#56aaef"/>
    <polygon points="200.58 484.79 316.68 484.79 403.23 534.03 356.02 575.07 93.55 590.16 0 575.07 -0.13 510.42 138.45 470.16 200.58 484.79" fill="url(#linear-gradient)"/>
    <polygon points="368.39 484.79 148.9 505 118.32 496.87 165.55 484.79 368.39 484.79" fill="url(#linear-gradient-2)"/>
    <polygon points="128 583.97 -7.87 558.42 -7.87 612.98 122.18 612.98 128 583.97" fill="#0848af"/>
    <path d="M308,498.62S380,578.28,441.55,600V473.68Z" fill="#002663"/>
    <polygon points="344.84 551.59 355.46 517.93 334.22 517.93 344.84 551.59" fill="#002663"/>
    <polygon points="355.46 553.67 366.08 520.01 344.84 520.01 355.46 553.67" fill="#002663"/>
    <polygon points="371.27 575.38 381.89 541.73 360.65 541.73 371.27 575.38" fill="#002663"/>
    <polygon points="169.63 255.39 148.9 243.32 141.55 228.61 128 234.81 114.6 227.01 131.48 206.42 153.55 206.42 169.63 255.39" fill="#fff" opacity="0.57"/>
    <path d="M308,498s72-115,133.55-146.32V534Z" fill="#1d6dcc"/>
    <polygon points="344.84 421.58 355.46 470.16 334.22 470.16 344.84 421.58" fill="#1d6dcc"/>
    <polygon points="355.46 418.58 366.08 467.16 344.84 467.16 355.46 418.58" fill="#1d6dcc"/>
    <polygon points="371.27 387.24 381.89 435.82 360.65 435.82 371.27 387.24" fill="#1d6dcc"/>
    <polygon points="200.58 484.79 109.81 403.21 29.29 384.93 -24.9 351.71 -24.9 528.43 200.58 484.79" fill="#1358bc"/>
    <polygon points="136.58 401.5 147.2 450.08 125.96 450.08 136.58 401.5" fill="#1358bc"/>
    <polygon points="147.2 418.58 157.82 467.16 136.58 467.16 147.2 418.58" fill="#1358bc"/>
    <polygon points="98.24 378.46 108.86 427.05 87.62 427.05 98.24 378.46" fill="#1358bc"/>
    <polygon points="85.98 367.21 96.61 415.79 75.36 415.79 85.98 367.21" fill="#1358bc"/>
    <polygon points="59.27 373.4 69.89 421.98 48.66 421.98 59.27 373.4" fill="#1358bc"/>
    <polygon points="49.79 363.92 60.41 412.5 39.17 412.5 49.79 363.92" fill="#1358bc"/>
    <polygon points="148.9 505 33.94 430.68 -12.52 393.52 -12.52 546.81 148.9 505" fill="#0848af"/>
    <polygon points="95.66 433.19 82.56 493.09 108.75 493.09 95.66 433.19" fill="#0848af"/>
    <polygon points="103.33 486 118.2 490.44 110.28 454.21 103.33 486" fill="#0848af"/>
    <polygon points="25.96 388.42 9.58 463.33 42.34 463.33 25.96 388.42" fill="#0848af"/>
    <polygon points="42.34 456.38 57.02 460.76 49.2 424.98 42.34 456.38" fill="#0848af"/>
    <polygon points="119 499.01 130.47 502.44 124.36 474.5 119 499.01" fill="#0848af"/>
    <polygon points="148.9 505.24 33.94 552.47 -12.52 576.08 -12.52 478.68 148.9 505.24" fill="#002663"/>
    <polygon points="95.66 550.88 82.56 512.81 108.75 512.81 95.66 550.88" fill="#002663"/>
    <polygon points="103.33 517.32 118.2 514.5 110.28 537.52 103.33 517.32" fill="#002663"/>
    <polygon points="25.96 579.32 9.58 531.72 42.34 531.72 25.96 579.32" fill="#002663"/>
    <polygon points="42.34 536.14 57.02 533.35 49.2 556.09 42.34 536.14" fill="#002663"/>
    <polygon points="119 509.05 130.47 506.87 124.36 524.63 119 509.05" fill="#002663"/>
    <path d="M69.28,536.65,34,569.23l43.06-21h0a59.09,59.09,0,0,1-87.57,74.47l6.27-21-13.2,15a60.82,60.82,0,0,1-4.14-4.62L-4.66,594.2l-22.79,9.2a58.39,58.39,0,0,1-6.46-18.84l14.09-4.76-14.77-1.57a57.33,57.33,0,0,1,.08-7.53L13.12,573l-45-16c.58-1.81,1.25-3.58,2-5.33l15,4.3-12-10.32a58.44,58.44,0,0,1,12.71-15.37l34.45,37.78L-2.28,522.36a59.5,59.5,0,0,1,5.92-2.61l9.44,14.48-2.47-16.6a58.59,58.59,0,0,1,20.07-1.3L31.39,541,41,518.38a60.76,60.76,0,0,1,7.64,2.81l-2,7.6,5.07-6.12a59,59,0,0,1,9.57,6.2l-6,7.39,9.32-4.57a60.33,60.33,0,0,1,4.75,5Z" fill="#002663"/>
    <polygon points="24.39 607.44 159.09 539.59 281.63 559.84 317.08 539.59 381.89 585.16 381.89 626.68 24.39 607.44" fill="#039"/>
    <path d="M2.11,600.38l39-6.86L5.84,611.26h0a48.66,48.66,0,0,0,92.49-20.18L81.45,584.7l16.44-1.13a43.94,43.94,0,0,0-1-5l-20.21,2.13,17.41-10.33A48.13,48.13,0,0,0,85,556.71l-10.15,6.86,6.34-10.46a44.88,44.88,0,0,0-5-3.71L53.94,581.74l12-37.43c-1.48-.52-3-1-4.5-1.35l-4.67,12-.76-13a48.16,48.16,0,0,0-16.42.65L47.14,584,28.48,546.38A50.08,50.08,0,0,0,23.81,549l4.77,13.41-9.64-9.9A48.18,48.18,0,0,0,8.07,565l15.8,12.78-19.6-5a47.34,47.34,0,0,0-2,6.4l6,2.47-6.54.26A48.65,48.65,0,0,0,1,591.23L8.88,591l-7.64,3.82a49.46,49.46,0,0,0,.87,5.59Z" fill="#00183a"/>
    <path d="M96.57,639.09l39-6.86L100.29,650h0a48.66,48.66,0,0,0,92.49-20.18l-16.89-6.39,16.45-1.13a46.27,46.27,0,0,0-1-5l-20.21,2.13,17.41-10.33a48.13,48.13,0,0,0-9.12-13.64l-10.15,6.86,6.35-10.46a46,46,0,0,0-5-3.71L148.4,620.45l12-37.43c-1.48-.52-3-1-4.49-1.35l-4.68,12-.76-13a48.16,48.16,0,0,0-16.42.65l7.55,41.43-18.66-37.62a50.08,50.08,0,0,0-4.67,2.57L123,601.07l-9.63-9.91a48.24,48.24,0,0,0-10.88,12.51l15.8,12.78-19.6-5a48.81,48.81,0,0,0-2,6.4l6,2.47-6.55.26a48.65,48.65,0,0,0-.71,9.36l7.85-.26-7.64,3.82a49.46,49.46,0,0,0,.87,5.59Z" fill="#00183a"/>
    <polygon points="337.87 519.63 452.84 445.31 499.29 408.14 499.29 561.43 337.87 519.63" fill="#0848af"/>
    <polygon points="389.05 457.23 402.15 517.13 375.96 517.13 389.05 457.23" fill="#0848af"/>
    <polygon points="382.96 506.9 368.09 511.34 376.01 475.11 382.96 506.9" fill="#0848af"/>
    <polygon points="369.76 513.92 358.29 517.35 364.4 489.4 369.76 513.92" fill="#0848af"/>
    <path d="M352.15,564.25c30.22-33.1,56.88-61.57,56.88-61.57l32.52,116.9L381.9,647.45Z" fill="#039"/>
    <path d="M169.13,648.18l50.66-20.85-42.38,34.45h0A67.38,67.38,0,0,0,296.51,607l-24.75-3.62L293.67,597a67.25,67.25,0,0,0-2.79-6.5l-26.7,8.89,20.47-19.14a66.81,66.81,0,0,0-16.38-15.75l-11.69,12.29,5.47-16a64.65,64.65,0,0,0-7.82-3.55l-20.54,50.36,5.1-54.18c-2.15-.27-4.3-.44-6.47-.5l-2.77,17.57-4.89-17.36a66.8,66.8,0,0,0-22,5.76l22.51,53.78-36.4-45.33a68.18,68.18,0,0,0-5.55,4.86l10.44,16.72-16-10.53a66.57,66.57,0,0,0-11,20.13l25.16,12.59-28-.94a68.14,68.14,0,0,0-.76,9.25L171.9,621l-8.77,2.3A67.4,67.4,0,0,0,165,636.13l10.54-2.69-9.2,7.44a68.59,68.59,0,0,0,2.84,7.29Z" fill="#00183a"/>
    <polygon points="352.15 511.34 401.02 734.85 303.29 734.85 352.15 511.34" fill="#00183a"/>
    <polygon points="325.14 568.61 374 792.12 276.28 792.12 325.14 568.61" fill="#00183a"/>
    <polygon points="17.28 434.28 66.14 657.79 -31.58 657.79 17.28 434.28" fill="#00183a"/>
    <polygon points="374.77 522.38 423.64 745.9 325.91 745.9 374.77 522.38" fill="#00183a"/>
    <polygon points="396.85 522.38 445.71 745.9 347.99 745.9 396.85 522.38" fill="#00183a"/>
    <polygon points="169.63 255.39 184.13 245.39 203.6 255.27 200 248.35 158.91 221.54 169.63 255.39" fill="#fff" opacity="0.88"/>
  </g>
</svg>