<svg width="569" height="404" viewBox="0 0 569 404" fill="none" xmlns="http://www.w3.org/2000/svg">
<path d="M536.27 29.586L30.0311 51.3865C11.6183 52.1775 -2.14727 68.5913 0.277392 86.8622L31.884 324.974C33.9174 340.3 46.8146 351.86 62.2697 352.212L503.485 362.298C519.594 362.668 533.359 350.772 535.341 334.784L568.758 64.7823C571.139 45.5312 555.654 28.7477 536.27 29.586Z" fill="#EAE9F7"/>
<path d="M522.565 167.947V273.127" stroke="#A3BCF8" stroke-width="2" stroke-miterlimit="10" stroke-linecap="round" stroke-linejoin="round"/>
<path d="M522.565 30.175V45.1916" stroke="#A3BCF8" stroke-width="2" stroke-miterlimit="10" stroke-linecap="round" stroke-linejoin="round"/>
<path d="M43.5132 59.2192V188.835H16.9838" stroke="#A3BCF8" stroke-width="2" stroke-miterlimit="10" stroke-linecap="round" stroke-linejoin="round"/>
<path d="M35.418 51.1243V180.74H12.7405" stroke="#A3BCF8" stroke-width="2" stroke-miterlimit="10" stroke-linecap="round" stroke-linejoin="round"/>
<path d="M35.4177 289.984H535.173" stroke="#A3BCF8" stroke-width="2" stroke-miterlimit="10" stroke-linecap="round" stroke-linejoin="round"/>
<path d="M28.8275 301.931H533.239" stroke="#A3BCF8" stroke-width="2" stroke-miterlimit="10" stroke-linecap="round" stroke-linejoin="round"/>
<path d="M189.611 32.7156C189.405 29.7321 186.968 27.3977 183.98 27.3203L55.0729 24.0272C50.8168 23.9197 47.4249 27.5568 47.829 31.7913L60.9669 169.369C61.4054 173.952 65.6786 177.172 70.2055 176.33L192.801 153.506C195.695 152.969 197.724 150.346 197.522 147.41L189.611 32.7156Z" fill="#A3BCF8"/>
<path d="M196.808 31.2069C196.598 28.1846 194.126 25.8116 191.095 25.7342L60.3393 22.3938C56.023 22.2821 52.5838 25.9706 52.9922 30.2697L66.3192 169.821C66.7621 174.468 71.0998 177.736 75.6912 176.88L200.045 153.725C202.982 153.179 205.037 150.518 204.835 147.543L196.808 31.2069Z" fill="white"/>
<path d="M60.339 22.3938L191.094 25.7342C194.125 25.8116 196.597 28.1803 196.808 31.2068L200.759 88.5174" stroke="#ECF1FE" stroke-width="2" stroke-miterlimit="10" stroke-linecap="round" stroke-linejoin="round"/>
<path d="M98.9358 37.3887H72.918C72.1184 37.3887 71.495 38.0765 71.5724 38.8718L72.2001 45.3634C72.2689 46.0727 72.875 46.6058 73.5887 46.5843L99.5033 45.7718C100.281 45.746 100.879 45.0711 100.806 44.2972L100.277 38.6182C100.217 37.9174 99.6323 37.3887 98.9358 37.3887Z" fill="#A1E9FB"/>
<path d="M73.1844 55.4921L123.66 52.5859" stroke="#A3BCF8" stroke-width="2" stroke-miterlimit="10" stroke-linecap="round" stroke-linejoin="round"/>
<path d="M73.83 62.1297L101.967 60.1865" stroke="#A3BCF8" stroke-width="2" stroke-miterlimit="10" stroke-linecap="round" stroke-linejoin="round"/>
<path d="M159.127 94.1835C158.349 94.8111 157.773 95.658 157.472 96.6124L150.564 118.632C149.742 121.25 146.982 122.742 144.343 121.99L132.667 118.671C130.341 118.009 127.873 119.084 126.773 121.233L115.582 143.076C114.409 145.372 111.696 146.417 109.284 145.505L98.1538 141.31C96.3439 140.626 94.3062 141.034 92.8961 142.359L84.3668 150.372C83.2232 151.447 82.6429 152.99 82.7933 154.555L83.3135 159.912L190.545 142.96L185.016 73.3159L159.127 94.1835Z" fill="#ECF1FE"/>
<path d="M82.5527 152.079L75.4464 78.8274" stroke="#ECF1FE" stroke-width="2" stroke-miterlimit="10" stroke-linecap="round" stroke-linejoin="round"/>
<path d="M82.0151 146.542L92.5779 114.402C93.4248 111.822 96.1504 110.369 98.7642 111.105L107.199 113.478C108.833 113.938 110.587 113.551 111.872 112.442L125.552 100.688C126.304 100.043 127.228 99.6303 128.213 99.5057L139.958 98.0096C142.142 97.7302 143.896 96.075 144.3 93.9083L146.987 79.4807C147.412 77.1936 149.338 75.4912 151.66 75.3493L185.02 73.303" stroke="#1872E4" stroke-width="4" stroke-miterlimit="10" stroke-linecap="round" stroke-linejoin="round"/>
<path d="M81.3918 140.14L93.2228 130.94C94.7662 129.741 96.8598 129.534 98.6052 130.411L105.252 133.743C107.814 135.029 110.926 133.937 112.126 131.336L126.295 100.589C126.523 100.09 127.099 99.8538 127.615 100.043L140.624 104.875C143.075 105.786 145.813 104.682 146.948 102.33L156.625 82.3137C156.939 81.6645 157.39 81.0885 157.945 80.6285L183.636 59.2192" stroke="#726AC8" stroke-width="4" stroke-miterlimit="10" stroke-linecap="round" stroke-linejoin="round"/>
<path d="M132.258 83.2682L117.1 84.3559C116.356 84.4075 115.797 85.0609 115.857 85.8047L116.498 93.7321C116.558 94.4888 117.233 95.0433 117.985 94.9616L123.858 94.3082C124.292 94.2609 124.722 94.4243 125.01 94.751L126.248 96.1482C126.399 96.3158 126.674 96.2729 126.764 96.0665L127.413 94.5876C127.607 94.1491 128.019 93.8439 128.496 93.7923L133.041 93.2893C133.69 93.2162 134.167 92.6445 134.12 91.991L133.556 84.386C133.509 83.7196 132.929 83.221 132.258 83.2682Z" fill="#F2A4D2"/>
<path d="M364.488 0H324.189C323.007 0 322.044 0.958683 322.044 2.14522V30.1793C322.044 31.0735 323.127 31.5249 323.763 30.8929L328.281 26.4047H364.488C365.67 26.4047 366.633 25.446 366.633 24.2595V2.14092C366.633 0.958679 365.675 0 364.488 0Z" fill="#509DFF"/>
<path d="M345.295 19.1865C348.516 18.6639 350.702 15.6297 350.18 12.4095C349.657 9.18935 346.623 7.00255 343.403 7.52516C340.183 8.04777 337.996 11.0819 338.518 14.3021C339.041 17.5223 342.075 19.7091 345.295 19.1865Z" stroke="#A36BEB" stroke-width="2" stroke-miterlimit="10" stroke-linecap="round" stroke-linejoin="round"/>
<path d="M344.648 12.8198C343.698 12.4242 343.294 12.1405 343.294 11.573C343.294 11.1345 343.612 10.6315 344.45 10.6315C344.906 10.6315 345.254 10.7347 345.508 10.8421C345.688 10.9195 345.89 10.8335 345.959 10.653L345.994 10.567C346.058 10.3993 345.985 10.2102 345.822 10.1371C345.594 10.0382 345.319 9.95655 344.975 9.91786C344.807 9.90066 344.682 9.75018 344.682 9.58251V9.17409C344.682 8.98493 344.532 8.83447 344.343 8.83447C344.154 8.83447 344.003 8.98493 344.003 9.17409V9.65559C344.003 9.80606 343.909 9.94794 343.758 9.99093C342.894 10.2188 342.352 10.8679 342.352 11.6977C342.352 12.6478 343.04 13.1508 344.154 13.5893C344.962 13.916 345.387 14.29 345.387 14.8919C345.387 15.5153 344.863 15.9624 344.085 15.9624C343.629 15.9624 343.199 15.8463 342.847 15.6786C342.662 15.5927 342.447 15.6743 342.378 15.8678L342.344 15.9581C342.288 16.1172 342.352 16.2977 342.507 16.3751C342.817 16.5299 343.216 16.6417 343.625 16.6846C343.797 16.7018 343.921 16.848 343.921 17.02V17.4671C343.921 17.6562 344.072 17.8067 344.261 17.8067H344.274C344.463 17.8067 344.614 17.6562 344.614 17.4671V16.9426C344.614 16.7921 344.708 16.6545 344.854 16.6201C345.826 16.3665 346.342 15.6142 346.342 14.8145C346.342 13.8472 345.77 13.2798 344.648 12.8198Z" fill="#A36BEB"/>
<path d="M553.844 57.8823L550.108 54.615L548.99 56.7258H422.005C419.099 56.7258 416.304 59.0817 415.771 61.9922L398.39 156.206C398.369 156.322 398.356 156.438 398.343 156.554L395.936 157.104L399.779 160.466H399.783C400.536 161.094 401.529 161.472 402.681 161.472H531.441C534.348 161.472 537.142 159.116 537.675 156.206L555.056 61.9922C555.366 60.3284 554.867 58.8495 553.844 57.8823Z" fill="#A3BCF8"/>
<path d="M547.159 53.5747H418.398C415.492 53.5747 412.697 55.9306 412.164 58.841L394.783 153.055C394.246 155.961 396.168 158.321 399.078 158.321H527.839C530.745 158.321 533.539 155.965 534.072 153.055L551.453 58.841C551.986 55.9349 550.065 53.5747 547.159 53.5747Z" fill="white"/>
<path d="M428.892 87.4985H424.262C423.294 87.4985 422.465 88.1907 422.288 89.1408L412.246 143.584C412.018 144.818 412.964 145.953 414.219 145.953H418.849C419.816 145.953 420.646 145.261 420.822 144.31L430.865 89.8673C431.088 88.6378 430.143 87.4985 428.892 87.4985Z" fill="#1872E4"/>
<path d="M447.133 96.0967H442.503C441.535 96.0967 440.706 96.7888 440.529 97.7389L432.073 143.584C431.845 144.818 432.791 145.953 434.047 145.953H438.677C439.644 145.953 440.474 145.261 440.65 144.311L449.106 98.4655C449.334 97.2359 448.388 96.0967 447.133 96.0967Z" fill="#1872E4"/>
<path d="M426.57 65.9431H435.276" stroke="#A3BCF8" stroke-width="2" stroke-miterlimit="10" stroke-linecap="round" stroke-linejoin="round"/>
<path d="M446.402 65.9431H455.108" stroke="#A3BCF8" stroke-width="2" stroke-miterlimit="10" stroke-linecap="round" stroke-linejoin="round"/>
<path d="M426.033 103.01H421.403C420.435 103.01 419.606 103.702 419.43 104.652L412.246 143.588C412.018 144.822 412.964 145.957 414.219 145.957H418.849C419.816 145.957 420.646 145.265 420.822 144.315L428.006 105.378C428.23 104.144 427.284 103.01 426.033 103.01Z" fill="#A1E9FB"/>
<path d="M444.274 111.607H439.644C438.677 111.607 437.847 112.3 437.671 113.25L432.073 143.588C431.845 144.822 432.791 145.957 434.047 145.957H438.677C439.644 145.957 440.474 145.265 440.65 144.315L446.247 113.976C446.475 112.742 445.525 111.607 444.274 111.607Z" fill="#A1E9FB"/>
<path d="M526.45 96.0967H521.82C520.853 96.0967 520.023 96.7888 519.847 97.7389L511.39 143.584C511.162 144.818 512.108 145.953 513.364 145.953H517.994C518.961 145.953 519.791 145.261 519.967 144.311L528.423 98.4655C528.651 97.2359 527.705 96.0967 526.45 96.0967Z" fill="#1872E4"/>
<path d="M523.591 111.607H518.961C517.994 111.607 517.164 112.3 516.988 113.25L511.39 143.588C511.162 144.822 512.108 145.957 513.364 145.957H517.994C518.961 145.957 519.791 145.265 519.967 144.315L525.564 113.976C525.792 112.742 524.842 111.607 523.591 111.607Z" fill="#706ACA"/>
<path d="M470.928 74.6013H466.298C465.33 74.6013 464.501 75.2935 464.324 76.2436L451.9 143.584C451.672 144.818 452.618 145.953 453.873 145.953H458.504C459.471 145.953 460.301 145.26 460.477 144.31L472.901 76.9701C473.129 75.7406 472.183 74.6013 470.928 74.6013Z" fill="#1872E4"/>
<path d="M468.069 90.1123H463.439C462.472 90.1123 461.642 90.8045 461.466 91.7545L451.905 143.588C451.677 144.822 452.623 145.957 453.878 145.957H458.508C459.475 145.957 460.305 145.265 460.481 144.315L470.042 92.4811C470.266 91.2473 469.32 90.1123 468.069 90.1123Z" fill="#706ACA"/>
<path d="M489.965 78.9004H485.334C484.367 78.9004 483.537 79.5925 483.361 80.5426L471.732 143.584C471.504 144.818 472.45 145.953 473.706 145.953H478.336C479.303 145.953 480.133 145.26 480.309 144.31L491.938 81.2692C492.166 80.0396 491.22 78.9004 489.965 78.9004Z" fill="#1872E4"/>
<path d="M487.106 94.4114H482.476C481.508 94.4114 480.679 95.1035 480.502 96.0536L471.732 143.588C471.504 144.822 472.45 145.957 473.706 145.957H478.336C479.303 145.957 480.133 145.265 480.309 144.315L489.079 96.7802C489.302 95.5463 488.357 94.4114 487.106 94.4114Z" fill="#706ACA"/>
<path d="M511.382 70.3022H506.752C505.785 70.3022 504.955 70.9944 504.779 71.9445L491.563 143.584C491.336 144.818 492.281 145.953 493.537 145.953H498.167C499.134 145.953 499.964 145.26 500.14 144.31L513.355 72.671C513.579 71.4415 512.633 70.3022 511.382 70.3022Z" fill="#1872E4"/>
<path d="M505.148 104.084H500.518C499.551 104.084 498.721 104.776 498.545 105.726L491.559 143.588C491.331 144.822 492.277 145.957 493.532 145.957H498.163C499.13 145.957 499.959 145.265 500.136 144.315L507.122 106.453C507.35 105.219 506.404 104.084 505.148 104.084Z" fill="#706ACA"/>
<path d="M363.409 49.0908C363.409 49.8173 366.349 50.402 369.973 50.402C373.598 50.402 376.538 49.813 376.538 49.0908V46.5071H363.409V49.0908Z" fill="#E9B371"/>
<path d="M369.974 47.8182C373.599 47.8182 376.538 47.2312 376.538 46.507C376.538 45.7828 373.599 45.1958 369.974 45.1958C366.348 45.1958 363.409 45.7828 363.409 46.507C363.409 47.2312 366.348 47.8182 369.974 47.8182Z" fill="#F7CB71"/>
<path d="M343.118 69.3005C342.606 69.8164 344.283 72.3013 346.862 74.8506C349.442 77.3999 351.944 79.0465 352.451 78.5306L354.269 76.6949L344.936 67.4648L343.118 69.3005Z" fill="#E9B371"/>
<path d="M354.269 76.6824C354.778 76.1674 353.101 73.6835 350.523 71.1344C347.945 68.5853 345.442 66.9362 344.933 67.4512C344.424 67.9661 346.101 70.4501 348.679 72.9992C351.257 75.5483 353.76 77.1973 354.269 76.6824Z" fill="#F7CB71"/>
<path d="M521.868 279.388L509.216 282.883L509.904 285.372C510.097 286.073 513.085 285.854 516.58 284.891C520.075 283.928 522.749 282.578 522.556 281.877L521.868 279.388Z" fill="#E9B371"/>
<path d="M515.191 279.868C511.696 280.831 509.022 282.181 509.216 282.882C509.409 283.582 512.397 283.363 515.892 282.4C519.387 281.437 522.061 280.087 521.868 279.386C521.674 278.686 518.686 278.905 515.191 279.868Z" fill="#F7CB71"/>
<path d="M56.6551 222.987L47.425 232.32L49.2607 234.139C49.7766 234.651 52.2615 232.974 54.8108 230.395C57.3601 227.815 59.0067 225.313 58.4908 224.806L56.6551 222.987Z" fill="#E9B371"/>
<path d="M52.9803 228.564C55.5294 225.986 57.1784 223.483 56.6635 222.974C56.1485 222.465 53.6646 224.142 51.1154 226.72C48.5663 229.298 46.9172 231.801 47.4322 232.31C47.9471 232.819 50.4311 231.142 52.9803 228.564Z" fill="#F7CB71"/>
<path d="M293.871 386.265C292.435 385.689 286.829 383.058 282.505 380.44C281.266 379.692 280.132 378.944 279.233 378.247C275.179 375.118 269.685 370.939 269.595 370.204C269.5 369.464 269.801 360.875 269.801 360.875L251.926 359.353C251.926 359.353 251.982 366.924 251.891 370.698C251.865 371.747 251.831 372.504 251.779 372.723C251.543 373.733 250.124 386.91 250.95 389.949C251.16 390.706 255.928 391.239 259.006 391.329C261.009 391.389 288.523 392.335 290.643 391.506C292.762 390.676 295.724 387 293.871 386.265Z" fill="#ED6B8A"/>
<path d="M251.935 367.285C257.351 369.967 263.692 370.445 269.578 369C269.604 366.446 269.801 360.875 269.801 360.875L251.926 359.353C251.926 359.353 251.956 363.575 251.935 367.285Z" fill="#25293D"/>
<path d="M202.809 379.184C200.669 375.109 199.564 370.754 199.564 370.754L200.806 360.277L182.952 358.618C182.952 358.618 181.981 365.952 181.413 369.568C181.4 369.666 181.383 369.761 181.37 369.856C180.816 373.359 179.036 380.547 178.438 384.967C178.352 385.603 179.526 385.977 181.37 385.977C181.37 385.977 181.555 387.821 181.37 390.169C181.185 392.52 182.221 396.664 186.439 397.494C190.652 398.324 208.686 398.255 211.588 397.494C214.49 396.733 214.279 394.317 214.211 394.106C214.142 393.9 204.955 383.26 202.809 379.184Z" fill="#ED6B8A"/>
<path d="M181.963 365.823C187.672 368.54 193.674 369.202 199.778 368.91L200.801 360.273L182.948 358.614C182.952 358.618 182.453 362.367 181.963 365.823Z" fill="#25293D"/>
<path d="M253.796 184.691C245.597 179.717 187.375 181.79 196.494 200.86C205.612 219.931 223.315 226.044 224.235 229.487C225.895 235.704 245.627 271.837 245.627 271.837C246.04 273.909 250.709 364.516 250.709 364.516C264.505 369.907 271.112 364.194 271.112 364.194C271.112 364.194 276.838 281.398 274.805 267.328C270.467 237.337 253.796 184.691 253.796 184.691Z" fill="#212B6C"/>
<path d="M178.696 175.453L177.815 178.677C174.676 190.173 174.238 202.231 176.529 213.921C179.444 228.791 186.597 247.659 193.45 274.602C193.45 274.602 184.113 326.775 180.351 361.864C180.351 361.864 183.528 365.707 191.821 366.262C200.114 366.816 201.356 363.085 201.356 363.085C201.356 363.085 216.553 305.529 222.555 285.263C223.9 280.715 224.61 276.012 224.661 271.274C224.782 259.649 224.954 237.999 224.644 229.35C224.61 228.374 224.846 227.411 225.34 226.573C226.299 224.956 229.923 224.75 230.486 220.803C231.316 214.991 231.776 190.405 231.776 190.405C231.776 190.405 206.545 171.197 178.696 175.453Z" fill="#212B6C"/>
<path d="M224.644 229.35C224.61 228.374 224.846 227.411 225.34 226.573C226.299 224.956 229.923 224.75 230.486 220.803C231.316 214.991 231.776 190.405 231.776 190.405" stroke="#32449E" stroke-width="2" stroke-miterlimit="10" stroke-linecap="round" stroke-linejoin="round"/>
<path d="M220.833 279.727C222.465 273.892 219.405 267.936 213.999 266.425C208.593 264.914 202.889 268.42 201.258 274.256C199.627 280.091 202.686 286.047 208.092 287.558C213.498 289.069 219.202 285.563 220.833 279.727Z" stroke="#32449E" stroke-width="2" stroke-miterlimit="10" stroke-linecap="round" stroke-linejoin="round"/>
<path d="M275.243 275.885C275.432 270.044 271.453 265.176 266.355 265.012C261.258 264.847 256.972 269.448 256.784 275.288C256.595 281.128 260.574 285.996 265.672 286.161C270.769 286.326 275.054 281.725 275.243 275.885Z" stroke="#32449E" stroke-width="2" stroke-miterlimit="10" stroke-linecap="round" stroke-linejoin="round"/>
<path d="M193.455 195.19C193.455 195.19 192.866 201.918 190.768 205.877C189.035 209.149 186.271 211.496 180.88 213.431" stroke="#32449E" stroke-width="2" stroke-miterlimit="10" stroke-linecap="round" stroke-linejoin="round"/>
<path d="M202.81 379.184C200.669 375.109 199.564 370.754 199.564 370.754C199.375 371.162 199.104 371.506 198.768 371.799C198.45 372.074 198.33 372.508 198.437 372.912C198.644 373.695 199.013 374.967 199.469 376.072C199.895 377.112 201.215 379.967 202.014 381.536C202.221 381.944 201.847 382.396 201.408 382.276C196.443 380.908 191.335 381.497 188.425 382.061C187.101 382.314 185.811 381.484 185.506 380.169C184.913 377.62 183.993 374.099 183.993 373.858C183.993 373.789 184.057 373.351 184.156 372.697C184.238 372.156 183.975 371.618 183.494 371.352C181.946 370.496 181.417 369.563 181.417 369.563C181.405 369.662 181.387 369.757 181.374 369.851C180.82 373.355 179.04 380.543 178.443 384.962C178.357 385.599 179.53 385.973 181.374 385.973C181.374 385.973 181.559 387.817 181.374 390.164C181.19 392.516 182.226 396.66 186.443 397.49C190.656 398.319 208.691 398.251 211.592 397.49C214.494 396.729 214.284 394.313 214.215 394.102C214.142 393.9 204.955 383.26 202.81 379.184Z" fill="#212B6C"/>
<path d="M181.37 385.977C181.37 385.977 181.396 384.412 180.841 380.547" stroke="#A3BCF8" stroke-width="2" stroke-miterlimit="10" stroke-linecap="round" stroke-linejoin="round"/>
<path d="M293.871 386.265C292.435 385.689 286.829 383.058 282.505 380.44C275.106 378.174 272.909 383.122 270.145 381.325C267.381 379.528 258.955 375.522 258.817 372.779V372.775C258.8 372.435 258.538 372.155 258.198 372.112C255.434 371.751 253.387 371.235 251.891 370.702C251.865 371.751 251.831 372.508 251.779 372.727C251.543 373.738 250.124 386.914 250.95 389.954C251.16 390.71 255.928 391.243 259.006 391.334C261.009 391.394 288.523 392.34 290.643 391.51C292.762 390.68 295.724 387 293.871 386.265Z" fill="#212B6C"/>
<path d="M341.828 128.743C339.678 125.932 335.813 125.081 332.684 126.727C320.762 133 297.363 144.444 297.363 144.444L297.225 104.303C297.204 97.6313 292.019 92.1113 285.36 91.6728C277.682 91.1698 271.319 97.5582 271.861 105.236L275.855 162.014C276.56 172.026 288.012 177.34 296.112 171.412L340.357 139.018C343.638 136.615 344.304 131.976 341.828 128.743Z" fill="#938CFA"/>
<path d="M297.358 144.444L288.661 148.347" stroke="#212B6C" stroke-width="2" stroke-miterlimit="10" stroke-linecap="round" stroke-linejoin="round"/>
<path d="M356.604 101.225C354.983 101.578 348.216 103.973 345.117 105.086C344.089 105.456 343.174 106.07 342.443 106.883L336.673 113.297C335.586 114.505 334.937 116.049 334.855 117.674C334.606 122.738 333.019 127.574 333.019 127.574C334.197 133.301 337.207 135.368 339.051 136.104C339.889 136.439 340.839 136.254 341.493 135.631L344.442 132.823C350.43 130.154 351.479 121.491 351.479 121.491L356.341 117.106C357.064 116.453 357.188 115.365 356.634 114.565L355.495 112.923L355.748 112.042C355.933 111.388 355.765 110.683 355.301 110.189L351.75 106.397C357.941 103.482 358.723 100.765 356.604 101.225Z" fill="#ED6B8A"/>
<path d="M339.008 112.833C339.008 112.833 346.269 109.841 347.851 109.333C348.139 109.243 348.427 110.692 347.661 111.762C346.372 113.564 342.971 116.079 342.971 116.079C342.971 116.079 347.116 119.466 344.816 125.27" stroke="#212B6C" stroke-width="2" stroke-miterlimit="10" stroke-linecap="round" stroke-linejoin="round"/>
<path d="M355.499 112.927L350.426 119.083C349.966 119.642 350.073 120.476 350.662 120.902C351.144 121.246 351.797 121.211 352.24 120.816L353.233 119.917" stroke="#212B6C" stroke-width="2" stroke-miterlimit="10" stroke-linecap="round" stroke-linejoin="round"/>
<path d="M353.741 115.06L350.796 118.237C350.207 118.873 349.209 118.907 348.577 118.31L348.444 118.185C347.889 117.661 347.79 116.809 348.22 116.178L352.799 109.364C353.22 108.736 353.156 107.898 352.636 107.343L352.511 107.21" stroke="#212B6C" stroke-width="2" stroke-miterlimit="10" stroke-linecap="round" stroke-linejoin="round"/>
<path d="M351.754 106.397L347.85 109.333" stroke="#212B6C" stroke-width="2" stroke-miterlimit="10" stroke-linecap="round" stroke-linejoin="round"/>
<path d="M345.164 114.045L345.967 114.759C346.552 115.275 347.442 115.227 347.967 114.651L352.794 109.359" stroke="#212B6C" stroke-width="2" stroke-miterlimit="10" stroke-linecap="round" stroke-linejoin="round"/>
<path d="M329.472 128.4C329.472 128.4 329.012 132.179 332.189 136.267C335.19 140.128 338.281 140.334 339.708 139.487" stroke="white" stroke-width="2" stroke-miterlimit="10" stroke-linecap="round" stroke-linejoin="round"/>
<path d="M312.358 36.2754C307.956 33.4939 302.741 35.1103 295.566 33.8077C288.842 32.5868 284.044 30.7941 280.923 30.9962C274.47 31.4132 264.539 40.0414 264.028 41.8857C263.516 43.7299 264.436 46.9757 263.31 48.5277C262.184 50.0753 259.213 51.9626 260.442 56.0209C261.672 60.0792 264.643 60.5048 264.23 62.9768C263.821 65.4487 263.615 69.9369 268.121 72.1036C272.626 74.2704 271.908 75.6074 276.211 73.9049C280.51 72.2025 303.463 69.176 305.101 67.7186C305.101 67.7186 307.263 67.8519 309.228 66.4633C311.666 64.7394 312.242 62.2416 311.554 59.602C311.554 59.602 318.394 54.3357 318.398 50.2473C318.411 41.9845 313.523 37.0105 312.358 36.2754Z" fill="#212B6C"/>
<path d="M271.53 78.5651C254.884 72.0391 236.579 77.9288 229.541 80.7275C227.065 81.712 224.778 83.1393 222.861 84.9922C209.972 97.4723 206.18 124.96 193.18 141.297C183.043 154.035 177.605 166.334 175.511 171.717C174.75 173.673 175.034 175.883 176.302 177.555C182.187 185.336 198.253 195.34 221.463 196.475C240.151 197.391 249.661 191.819 253.612 188.5C255.086 187.262 255.903 185.418 255.882 183.492C255.813 177.495 255.71 163.308 256.286 161.283C257.021 158.704 261.169 154.005 261.169 154.005C280.24 132.449 291.848 115.868 294.049 106.333C296.25 96.8059 292.669 86.8536 271.53 78.5651Z" fill="#706ACA"/>
<path d="M278.851 101.174C278.851 101.174 273.426 101.917 272.196 99.9828C270.967 98.0482 266.543 92.6572 266.543 92.6572C266.543 92.6572 266.745 125.235 260.15 143.631C260.15 143.631 276.216 127.879 281.607 118.146C286.998 108.413 286.504 105.507 285.369 103.504C284.234 101.5 278.851 101.174 278.851 101.174Z" fill="white"/>
<path d="M288.154 90.6841C289.715 99.9012 284.84 108.594 284.84 108.594C284.84 108.594 274.363 128.004 260.808 142.019L257.756 148.343C280.511 131.164 289.629 113.589 289.629 113.589C289.629 113.589 289.556 112.059 289.397 110.92C289.233 109.746 288.924 108.594 288.924 108.594L291.907 104.402C292.853 96.3416 289.719 88.513 289.719 88.513C285.945 87.7521 288.154 90.6841 288.154 90.6841Z" fill="#A36BEB"/>
<path d="M208.669 110.193C206.094 116.59 203.562 123.228 200.531 129.35L200.527 129.358L236.927 109.329L226.803 106.053L208.669 110.193Z" fill="#212B6C"/>
<path d="M270.984 70.9471C270.984 70.9471 269.918 80.9596 268.533 85.6585C267.149 90.3574 270.975 101.905 278.95 102.876C285.85 103.715 286.422 95.0562 286.422 95.0562C286.422 95.0562 287.875 84.0034 288.614 81.2391C289.354 78.4705 277.944 67.2886 270.984 70.9471Z" fill="#ED6B8A"/>
<path d="M273.499 83.1995C273.499 83.1995 276.68 93.4871 286.426 95.0519L287.38 89.9834C287.38 89.9877 278.374 88.3884 273.499 83.1995Z" fill="#212B6C"/>
<path d="M272.196 104.449L273.692 113.568C273.692 113.568 277.286 114.673 280.601 113.568L283.271 105.094L278.847 101.174L272.196 104.449Z" fill="#E9B371"/>
<path d="M268.873 84.3817L269.419 81.8152C269.419 81.8152 265.034 85.4737 265.589 92.4553C266.044 98.1988 268.994 104.729 270.025 106.866C270.202 107.231 270.675 107.33 270.984 107.068C274.862 103.8 278.856 101.174 278.856 101.174C268.349 93.6633 268.873 84.3817 268.873 84.3817Z" fill="white"/>
<path d="M287.213 89.3943L286.426 92.438C284.328 98.8479 278.851 101.178 278.851 101.178C279.767 101.866 283.03 106.178 284.315 107.893C284.578 108.241 285.106 108.22 285.334 107.85C286.246 106.376 288.137 102.799 288.649 97.8161C289.268 91.7846 288.649 87.7134 288.649 87.7134L287.213 89.3943Z" fill="white"/>
<path d="M253.779 90.7226C253.779 90.7226 257.386 97.4377 258.95 101.174C258.95 101.174 256.109 102.984 253.989 104.273C253.989 104.273 256.741 116.014 257.755 131.349C258.331 140.093 257.755 148.347 257.755 148.347C257.755 148.347 262.794 141.099 266.414 121.138C269.088 106.401 265.429 92.4122 268.868 84.3858C268.868 84.3858 270.029 80.2846 270.511 75.0698C270.511 75.0698 261.508 78.7928 253.779 90.7226Z" fill="#938CFA"/>
<path d="M258.955 101.174C258.955 101.174 264.982 97.5411 267.265 96.7114" stroke="#212B6C" stroke-width="2" stroke-miterlimit="10" stroke-linecap="round" stroke-linejoin="round"/>
<path d="M257.756 148.347L251.307 155.763L249.183 157.887C248.564 158.506 248.349 159.421 248.624 160.251C248.908 161.098 248.676 162.031 248.031 162.65C246.896 163.733 245.215 165.427 244.858 166.266C244.304 167.555 243.096 182.873 238.083 195.387" stroke="#212B6C" stroke-width="2" stroke-miterlimit="10" stroke-linecap="round" stroke-linejoin="round"/>
<path d="M288.924 108.598C288.924 108.598 288.03 105.06 287.381 103.508" stroke="#212B6C" stroke-width="2" stroke-miterlimit="10" stroke-linecap="round" stroke-linejoin="round"/>
<path d="M248.384 166.958C247.838 166.958 247.395 167.401 247.395 167.946C247.395 168.492 247.838 168.935 248.384 168.935C248.93 168.935 249.372 168.492 249.372 167.946C249.372 167.401 248.93 166.958 248.384 166.958Z" fill="#212B6C"/>
<path d="M245.413 184.36C245.96 184.36 246.402 183.918 246.402 183.372C246.402 182.825 245.96 182.383 245.413 182.383C244.867 182.383 244.425 182.825 244.425 183.372C244.425 183.918 244.867 184.36 245.413 184.36Z" fill="#212B6C"/>
<path d="M224.098 164.172C214.847 162.199 208.527 158.845 206.094 157.392C205.483 157.031 204.697 157.263 204.391 157.904L203.893 158.953C203.63 159.508 203.824 160.174 204.348 160.492C206.674 161.906 213.351 165.556 223.286 167.654C223.913 167.787 224.537 167.409 224.7 166.79L225.005 165.651C225.177 164.989 224.765 164.314 224.098 164.172Z" fill="#A36BEB"/>
<path d="M141.497 173.105C141.497 173.105 141.08 177.589 141.978 179.356C142.735 180.844 144.205 180.779 144.485 180.027C144.76 179.274 144.39 176.222 145.822 173.419C147.249 170.616 147.545 168.127 147.722 167.022C147.889 165.922 140.456 164.357 141.497 173.105Z" fill="#ED6B8A"/>
<path d="M90.0327 197.515L145.366 227.329C153.616 211.715 171.895 186.871 171.895 186.871C155.572 178.497 112.508 161.554 112.508 161.554C98.7856 177.641 90.0327 197.515 90.0327 197.515Z" fill="white"/>
<path d="M243.07 91.2559C239.876 83.2682 230.53 79.7301 222.847 83.6036C208.583 90.7873 188.081 101.35 182.991 105.215C176.934 109.811 154.604 137.152 144.067 150.222C140.989 154.039 141.626 159.636 145.477 162.667C148.921 165.38 153.835 165.148 157.008 162.117C168.817 150.836 195.579 125.296 197.083 124.006C198.326 122.94 219.327 115.662 234.188 110.589C242.137 107.876 246.191 99.0543 243.07 91.2559Z" fill="#938CFA"/>
<path d="M143.096 154.22L139.506 156.524L128.131 159.688C126.953 160.015 126.015 160.909 125.629 162.07C124.335 165.969 121.476 174.924 121.304 178.385C121.222 180.01 122.426 180.031 122.426 180.031C122.426 180.031 120.71 186.162 121.295 187.082C122.099 188.354 123.586 186.905 124.292 186.028C124.292 186.028 125.611 187.258 127.456 185.414C127.808 185.818 128.917 186.398 130.34 185.362C134.622 182.228 141.69 173.204 141.69 173.204C141.69 173.204 144.862 171.708 147.958 168.093C149.067 166.794 150.946 165.518 151.573 163.531C151.573 163.527 151.969 154.822 143.096 154.22Z" fill="#ED6B8A"/>
<path d="M124.292 186.028C123.81 185.689 123.656 185.048 123.922 184.528L130.96 170.904" stroke="#212B6C" stroke-width="2" stroke-miterlimit="10" stroke-linecap="round" stroke-linejoin="round"/>
<path d="M122.426 180.031L126.368 168.725" stroke="#212B6C" stroke-width="2" stroke-miterlimit="10" stroke-linecap="round" stroke-linejoin="round"/>
<path d="M159.446 189.094C158.715 188.698 157.932 188.303 157.373 188.023C156.913 187.795 156.359 187.911 156.032 188.307C153.586 191.252 150.847 195.37 149.644 197.219C149.304 197.743 149.467 198.448 150.005 198.766L152.034 199.974C152.537 200.271 153.182 200.129 153.513 199.643C155.869 196.174 158.551 192.447 159.811 190.71C160.206 190.173 160.034 189.412 159.446 189.094Z" fill="#938CFA"/>
<path d="M151.488 184.799C151.488 184.799 142.872 196.333 134.592 209.346" stroke="#A3BCF8" stroke-width="2" stroke-miterlimit="10" stroke-linecap="round" stroke-linejoin="round"/>
<path d="M145.477 182.163C145.477 182.163 141.243 187.829 135.86 195.701" stroke="#A3BCF8" stroke-width="2" stroke-miterlimit="10" stroke-linecap="round" stroke-linejoin="round"/>
<path d="M127.456 185.413C127.073 185.039 127.022 184.442 127.331 184.003C128.982 181.669 133.947 174.636 135.134 172.877" stroke="#212B6C" stroke-width="2" stroke-miterlimit="10" stroke-linecap="round" stroke-linejoin="round"/>
<path d="M144.067 150.217C144.067 150.217 147.923 150.002 151.93 153.527C155.937 157.053 155.98 162.19 155.06 163.523" stroke="white" stroke-width="2" stroke-miterlimit="10" stroke-linecap="round" stroke-linejoin="round"/>
<path d="M102.973 190.955C101.344 190.74 99.7787 191.983 99.5896 193.737C99.4047 195.482 100.673 196.896 102.315 196.896C103.846 196.896 105.152 195.654 105.329 194.115C105.509 192.567 104.495 191.157 102.973 190.955Z" fill="#A3BCF8"/>
<path d="M271.345 49.7787C267.927 59.2968 271.345 67.2071 271.126 72.0435C270.907 76.88 272.416 86.2261 281.461 90.9035C290.936 95.8044 299.796 90.796 302.264 82.7353C305.462 72.2843 305.076 72.2972 307.616 62.5254C310.449 51.6316 306.739 48.9232 304.861 46.7651C296.525 37.161 275.373 38.5582 271.345 49.7787Z" fill="#ED6B8A"/>
<path d="M292.694 36.3785C278.972 33.6572 269.819 38.7731 267.751 44.766C265.679 50.7545 266.883 62.6284 268.736 63.2819C270.589 63.9353 271.895 67.7486 273.31 66.6007C274.724 65.4529 276.358 57.9425 276.358 57.9425C281.805 56.0896 284.199 50.5911 284.199 50.5911C284.199 50.5911 286.706 54.8945 295.42 58.7077C305.535 63.1314 311.215 58.7077 311.215 58.7077C314.804 46.3996 306.417 39.1041 292.694 36.3785Z" fill="#212B6C"/>
<path d="M267.532 61.2141C264.591 60.7799 264.767 68.6299 268.185 71.2351C270.472 72.9762 271.998 71.2351 271.998 71.2351V66.9877C271.998 66.9877 270.472 61.6483 267.532 61.2141Z" fill="#ED6B8A"/>
<path d="M273.692 113.572L264.389 175.839C264.29 176.506 264.441 177.189 264.819 177.748L273.645 190.929C274.126 191.647 275.18 191.643 275.657 190.925L283.331 179.348C283.649 178.866 283.808 178.294 283.778 177.714L280.596 113.568C276.869 114.492 273.692 113.572 273.692 113.572Z" fill="#F7CB71"/>
<path d="M281.083 123.288L270.902 132.26" stroke="#ED6B8A" stroke-width="2" stroke-miterlimit="10" stroke-linecap="round" stroke-linejoin="round"/>
<path d="M281.813 138.025L268.259 149.955" stroke="#ED6B8A" stroke-width="2" stroke-miterlimit="10" stroke-linecap="round" stroke-linejoin="round"/>
<path d="M282.728 156.442L264.982 171.867" stroke="#ED6B8A" stroke-width="2" stroke-miterlimit="10" stroke-linecap="round" stroke-linejoin="round"/>
<path d="M283.64 174.838L270.511 186.252" stroke="#ED6B8A" stroke-width="2" stroke-miterlimit="10" stroke-linecap="round" stroke-linejoin="round"/>
<path d="M287.235 64.6705C286.521 65.2638 286.427 66.3213 287.02 67.035C287.613 67.7486 288.671 67.8432 289.384 67.2499C290.098 66.6566 290.193 65.5991 289.599 64.8854C289.006 64.1718 287.948 64.0772 287.235 64.6705Z" fill="#1F2970"/>
<path d="M296.417 76.6176C300.118 75.9082 301.167 73.2041 298.885 71.6952L299.151 69.7864" stroke="#1F296F" stroke-width="2" stroke-miterlimit="10" stroke-linecap="round" stroke-linejoin="round"/>
<path d="M295.463 80.8951C295.463 80.8951 290.089 81.6517 287.664 76.7896" stroke="#1F296F" stroke-width="2" stroke-miterlimit="10" stroke-linecap="round" stroke-linejoin="round"/>
<path d="M301.619 66.1064C300.815 65.9818 300.054 66.5836 299.921 67.452C299.787 68.3204 300.333 69.1201 301.137 69.2447C301.941 69.3694 302.702 68.7675 302.836 67.8991C302.969 67.0307 302.427 66.2311 301.619 66.1064Z" fill="#1F2970"/>
<path d="M291.877 59.4472C290.351 58.7207 287.501 58.1661 284.591 59.8814C280.614 62.2243 289.062 61.0421 290.79 62.2759C292.518 63.5097 293.743 60.3371 291.877 59.4472Z" fill="#1F296F"/>
<path d="M301.731 61.2484C300.686 61.7342 299.989 64.2836 301.486 63.7978C302.986 63.3163 305.961 65.0445 304.757 62.4694C304.43 61.7686 302.878 60.7153 301.731 61.2484Z" fill="#1F296F"/>
<path d="M298.983 85.9035C295.475 88.2637 296.417 84.79 289.233 85.9035C285.123 86.5398 277.802 85.4736 275.45 78.8617C273.099 72.2497 273.98 65.3326 274.453 61.1023C274.926 56.8678 270.575 62.5511 271.757 66.2569C271.757 66.2569 271.972 70.7837 272.002 76.6175C272.032 82.4514 274.706 88.0444 281.675 91.2343C288.644 94.4242 294.873 93.6074 299.289 88.7151C302.049 85.6584 303.261 81.5658 304.198 78.0749C305.264 74.1155 304.976 73.2213 304.976 73.2213C304.976 73.2213 302.637 83.4444 298.983 85.9035Z" fill="#212B6C"/>
<path d="M317.543 50.5095C317.543 50.5095 318.398 55.3932 313.489 59.602" stroke="#1F296F" stroke-width="2" stroke-miterlimit="10" stroke-linecap="round" stroke-linejoin="round"/>
<path d="M122.972 259.31H118.548V271.472H122.972V259.31Z" fill="#18214C"/>
<path d="M122.972 271.468H118.548V341.667H122.972V271.468Z" fill="#212B6C"/>
<path d="M86.3525 258.536C86.3525 260.711 101.756 262.474 120.762 262.474C139.764 262.474 155.172 260.711 155.172 258.536V252.608H86.3525V258.536Z" fill="#212B6C"/>
<path d="M93.6738 376.902V364.882C93.6738 349.925 105.801 337.798 120.758 337.798C135.714 337.798 147.842 349.925 147.842 364.882V376.902" stroke="#212B6C" stroke-width="8" stroke-miterlimit="10" stroke-linecap="round" stroke-linejoin="round"/>
<path d="M120.758 337.798V378.35" stroke="#212B6C" stroke-width="8" stroke-miterlimit="10" stroke-linecap="round" stroke-linejoin="round"/>
<path d="M97.966 381.199C100.34 378.825 100.34 374.976 97.966 372.602C95.5921 370.228 91.7432 370.228 89.3693 372.602C86.9954 374.976 86.9954 378.825 89.3693 381.199C91.7432 383.573 95.5921 383.573 97.966 381.199Z" fill="#212B6C"/>
<path d="M152.134 381.199C154.508 378.825 154.508 374.977 152.134 372.603C149.76 370.229 145.911 370.229 143.537 372.603C141.163 374.977 141.163 378.825 143.537 381.199C145.911 383.573 149.76 383.573 152.134 381.199Z" fill="#212B6C"/>
<path d="M122.169 384.224C125.436 383.453 127.46 380.179 126.688 376.912C125.917 373.644 122.643 371.621 119.375 372.393C116.108 373.164 114.085 376.438 114.856 379.706C115.628 382.973 118.902 384.996 122.169 384.224Z" fill="#212B6C"/>
<path d="M120.758 256.545C139.762 256.545 155.167 254.782 155.167 252.608C155.167 250.433 139.762 248.67 120.758 248.67C101.754 248.67 86.3483 250.433 86.3483 252.608C86.3483 254.782 101.754 256.545 120.758 256.545Z" fill="#32449E"/>
<path d="M123.075 331.302H118.445C117.473 331.302 116.682 332.088 116.682 333.064V342.531C116.682 343.502 117.469 344.293 118.445 344.293H123.075C124.047 344.293 124.838 343.507 124.838 342.531V333.064C124.838 332.093 124.047 331.302 123.075 331.302Z" fill="#212B6C"/>
<path d="M513.063 231.121H231.028C230.263 231.121 229.648 231.74 229.648 232.501V235.958C229.648 236.723 230.268 237.338 231.028 237.338H513.063C513.828 237.338 514.443 236.718 514.443 235.958V232.501C514.443 231.736 513.824 231.121 513.063 231.121Z" fill="#BCE2F0"/>
<path d="M325.87 231.121H231.028C230.263 231.121 229.648 231.74 229.648 232.501V235.958C229.648 236.723 230.268 237.338 231.028 237.338H325.87C326.635 237.338 327.25 236.718 327.25 235.958V232.501C327.254 231.736 326.635 231.121 325.87 231.121Z" fill="white"/>
<path d="M244.252 237.337H239.691V248.253H244.252V237.337Z" fill="#BCE2F0"/>
<path d="M244.252 248.253H239.691V396.11H244.252V248.253Z" fill="white"/>
<path d="M317.212 237.337H312.65V248.253H317.212V237.337Z" fill="#BCE2F0"/>
<path d="M317.212 248.253H312.65V396.11H317.212V248.253Z" fill="white"/>
<path d="M431.446 237.337H426.884V248.253H431.446V237.337Z" fill="#A3BCF8"/>
<path d="M431.446 248.253H426.884V396.11H431.446V248.253Z" fill="#BCE2F0"/>
<path d="M504.404 248.253H499.843V396.11H504.404V248.253Z" fill="#BCE2F0"/>
<path d="M504.404 237.337H499.843V248.253H504.404V237.337Z" fill="#A3BCF8"/>
<path d="M420.651 398.926C420.651 400.989 432.305 402.661 446.681 402.661C461.057 402.661 472.712 400.989 472.712 398.926L481.091 319.686H412.276L420.651 398.926Z" fill="white"/>
<path d="M420.651 398.926C420.651 400.989 432.305 402.661 446.681 402.661C461.057 402.661 472.712 400.989 472.712 398.926L481.091 319.686" stroke="#ECF1FE" stroke-width="2" stroke-miterlimit="10" stroke-linecap="round" stroke-linejoin="round"/>
<path d="M417.646 313.761L412.276 319.69C412.276 321.865 427.679 323.628 446.686 323.628C465.687 323.628 481.095 321.865 481.095 319.69L475.726 313.761H417.646Z" fill="white"/>
<path d="M412.276 319.686C412.276 321.861 427.679 323.623 446.686 323.623C465.692 323.623 481.095 321.861 481.095 319.686" stroke="#ECF1FE" stroke-width="2" stroke-miterlimit="10" stroke-linecap="round" stroke-linejoin="round"/>
<path d="M446.681 317.085C462.717 317.085 475.717 315.597 475.717 313.761C475.717 311.926 462.717 310.438 446.681 310.438C430.645 310.438 417.645 311.926 417.645 313.761C417.645 315.597 430.645 317.085 446.681 317.085Z" fill="#BCE2F0"/>
<path d="M478.787 320.756C478.555 319.991 477.781 319.531 476.994 319.677C473.486 320.335 469.595 320.73 467.33 320.924C466.423 321.001 465.752 321.835 465.911 322.729C465.946 322.931 465.971 323.121 465.989 323.305C466.066 324.135 466.797 324.75 467.631 324.707C471.938 324.466 475.859 323.701 477.738 323.284C478.512 323.112 479.049 322.39 478.967 321.603C478.924 321.294 478.864 321.01 478.787 320.756Z" fill="#BCE2F0"/>
<path d="M486.625 171.179H448.303V231.121H486.625V171.179Z" fill="white"/>
<path d="M493.838 171.179H486.624V231.121H495.837V173.174C495.837 172.074 494.943 171.179 493.838 171.179Z" fill="#A3BCF8"/>
<path d="M480.546 198.878H454.382V224.242H480.546V198.878Z" stroke="#ECF1FE" stroke-width="2" stroke-miterlimit="10" stroke-linecap="round" stroke-linejoin="round"/>
<path d="M480.545 176.768H476.676" stroke="#A3BCF8" stroke-width="2" stroke-miterlimit="10" stroke-linecap="round" stroke-linejoin="round"/>
<path d="M492.518 175.479H489.939V183.307H492.518V175.479Z" fill="white"/>
<path d="M503.051 185.379H495.837V231.117H505.05V187.378C505.05 186.273 504.156 185.379 503.051 185.379Z" fill="#A36BEB"/>
<path d="M501.731 189.678H499.151V197.507H501.731V189.678Z" fill="#BCE2F0"/>
<path d="M490.721 101.225H372.128C370.473 101.225 369.007 102.296 368.504 103.869L342.065 186.282C341.527 187.954 342.774 189.661 344.528 189.661H463.121C464.776 189.661 466.242 188.591 466.745 187.017L493.185 104.604C493.722 102.936 492.475 101.225 490.721 101.225Z" fill="#A3BCF8"/>
<path d="M429.331 159.89C429.236 159.06 428.531 158.437 427.697 158.437H411.369C410.454 158.437 409.714 159.189 409.727 160.105L410.548 217.381C410.583 219.647 409.813 221.736 408.51 223.383H436.295C436.463 222.48 436.502 221.534 436.39 220.571L429.331 159.89Z" fill="#A3BCF8"/>
<path d="M401.09 226.972H370.043C368.899 226.972 367.97 227.901 367.97 229.045C367.97 230.188 368.899 231.117 370.043 231.117H426.992C431.678 231.117 435.491 227.733 436.291 223.378H408.506C406.778 225.567 404.1 226.972 401.09 226.972Z" fill="#85A4D8"/>
<path d="M409.757 159.77L400.166 189.665H410.153L409.727 160.105C409.727 159.989 409.736 159.877 409.757 159.77Z" fill="#85A4D8"/>
<path d="M372.132 101.23C370.477 101.23 369.011 102.296 368.503 103.874L342.064 186.287C341.527 187.959 342.774 189.666 344.528 189.666C346.093 189.666 347.481 188.656 347.958 187.164L374.518 104.498C375.034 102.881 373.83 101.23 372.132 101.23Z" fill="white"/>
<path d="M357.812 183.032H361.406" stroke="#85A4D8" stroke-width="2" stroke-miterlimit="10" stroke-linecap="round" stroke-linejoin="round"/>
<path d="M367.936 183.032H371.526" stroke="#85A4D8" stroke-width="2" stroke-miterlimit="10" stroke-linecap="round" stroke-linejoin="round"/>
<path d="M378.056 183.032H381.65" stroke="#85A4D8" stroke-width="2" stroke-miterlimit="10" stroke-linecap="round" stroke-linejoin="round"/>
<path d="M409.727 160.101C409.714 159.185 410.454 158.433 411.369 158.433H427.697C428.531 158.433 429.232 159.056 429.331 159.886L436.386 220.567" stroke="#85A4D8" stroke-width="2" stroke-miterlimit="10" stroke-linecap="round" stroke-linejoin="round"/>
<path d="M299.95 204.312H282.991C282.067 204.312 281.336 205.086 281.383 206.01L282.681 229.599C282.729 230.45 283.434 231.121 284.289 231.121H298.652C299.508 231.121 300.213 230.455 300.26 229.599L301.558 206.01C301.606 205.086 300.87 204.312 299.95 204.312Z" fill="white"/>
<path d="M281.491 207.996H301.421" stroke="#ECF1FE" stroke-width="2" stroke-miterlimit="10" stroke-linecap="round" stroke-linejoin="round"/>
<path d="M301.365 209.475H305.543C306.906 209.475 307.972 210.658 307.826 212.016L306.906 220.713C306.73 222.368 305.698 223.813 304.185 224.513L300.44 226.255" stroke="white" stroke-width="2" stroke-miterlimit="10" stroke-linecap="round" stroke-linejoin="round"/>
<path d="M323.845 224.397H312.792C309.078 224.397 306.064 227.407 306.064 231.121H330.569C330.569 229.264 329.817 227.583 328.6 226.366C327.383 225.15 325.703 224.397 323.845 224.397Z" fill="#BCE2F0"/>
<path d="M315.14 224.397H312.792C309.078 224.397 306.064 227.407 306.064 231.121H321.863C321.863 229.264 321.111 227.583 319.894 226.366C318.678 225.15 316.997 224.397 315.14 224.397Z" fill="white"/>
</svg>
