<svg width="569" height="421" viewBox="0 0 569 421" fill="none" xmlns="http://www.w3.org/2000/svg">
<path d="M88.2402 393.952C14.0289 325.99 -17.2636 241.16 9.38088 183.674C12.1148 177.76 28.9059 146.886 62.8193 130.32C104.244 110.077 153.313 117.494 180.511 145.46C221.58 187.661 283.608 86.1635 303.157 51.5608C322.706 16.9582 411.927 -32.8937 487.661 30.3412C563.395 93.576 554.519 191.385 547.936 219.824C535.62 273.04 577.715 291.343 567.32 316.397C552.645 351.831 499.38 384.075 483.324 393.786C479.69 395.996 476.592 397.761 474.44 398.973L88.2402 393.952Z" fill="#E5EDF3"/>
<path d="M479.864 91.144H451.571C448.895 91.144 446.726 93.3143 446.726 95.9915V100.459C446.726 103.136 448.895 105.307 451.571 105.307H479.864C482.54 105.307 484.709 103.136 484.709 100.459V95.9915C484.709 93.3143 482.54 91.144 479.864 91.144Z" fill="#D3E1EC"/>
<path d="M504.99 108.676H477.731C475.055 108.676 472.885 110.846 472.885 113.523V117.643C472.885 120.32 475.055 122.491 477.731 122.491H504.99C507.666 122.491 509.836 120.32 509.836 117.643V113.523C509.836 110.846 507.666 108.676 504.99 108.676Z" fill="#D3E1EC"/>
<path d="M458.8 108.417H430.508C427.832 108.417 425.662 110.587 425.662 113.265V117.732C425.662 120.409 427.832 122.58 430.508 122.58H458.8C461.476 122.58 463.646 120.409 463.646 117.732V113.265C463.646 110.587 461.476 108.417 458.8 108.417Z" fill="#D3E1EC"/>
<path d="M484.96 125.945H457.702C455.025 125.945 452.856 128.115 452.856 130.792V134.912C452.856 137.589 455.025 139.76 457.702 139.76H484.96C487.636 139.76 489.806 137.589 489.806 134.912V130.792C489.806 128.115 487.636 125.945 484.96 125.945Z" fill="#D3E1EC"/>
<path d="M404.073 312.478H375.781C373.105 312.478 370.935 314.648 370.935 317.326V321.793C370.935 324.47 373.105 326.641 375.781 326.641H404.073C406.75 326.641 408.919 324.47 408.919 321.793V317.326C408.919 314.648 406.75 312.478 404.073 312.478Z" fill="#D3E1EC"/>
<path d="M429.199 330.01H401.941C399.265 330.01 397.095 332.18 397.095 334.857V338.977C397.095 341.655 399.265 343.825 401.941 343.825H429.199C431.876 343.825 434.045 341.655 434.045 338.977V334.857C434.045 332.18 431.876 330.01 429.199 330.01Z" fill="#D3E1EC"/>
<path d="M383.01 329.751H354.718C352.041 329.751 349.872 331.921 349.872 334.599V339.066C349.872 341.743 352.041 343.914 354.718 343.914H383.01C385.686 343.914 387.856 341.743 387.856 339.066V334.599C387.856 331.921 385.686 329.751 383.01 329.751Z" fill="#D3E1EC"/>
<path d="M409.17 347.283H381.911C379.235 347.283 377.065 349.453 377.065 352.13V356.25C377.065 358.928 379.235 361.098 381.911 361.098H409.17C411.846 361.098 414.016 358.928 414.016 356.25V352.13C414.016 349.453 411.846 347.283 409.17 347.283Z" fill="#D3E1EC"/>
<path d="M484.104 232.245C505.994 232.245 523.739 216.487 523.739 197.048C523.739 177.61 505.994 161.852 484.104 161.852C462.214 161.852 444.468 177.61 444.468 197.048C444.468 216.487 462.214 232.245 484.104 232.245Z" fill="white"/>
<path d="M374.315 91.0835C386.816 91.0835 396.95 82.0841 396.95 70.9828C396.95 59.8815 386.816 50.8821 374.315 50.8821C361.815 50.8821 351.681 59.8815 351.681 70.9828C351.681 82.0841 361.815 91.0835 374.315 91.0835Z" fill="white"/>
<path d="M287.509 421C397.562 421 486.777 408.89 486.777 393.951C486.777 379.013 397.562 366.903 287.509 366.903C177.456 366.903 88.2405 379.013 88.2405 393.951C88.2405 408.89 177.456 421 287.509 421Z" fill="#08446B"/>
<path d="M287.594 153.817C287.594 153.817 260.872 159.772 259.189 187.164C257.505 214.556 263.441 231.061 262.762 238.377C262.084 245.693 257.149 247.563 258.34 258.284C259.532 269.005 289.463 268.492 307.155 270.023C324.847 271.554 360.561 262.707 364.305 257.94C368.048 253.174 365.322 243.649 354.439 232.249C343.556 220.849 338.109 210.302 338.961 202.134C339.813 193.966 336.239 179.165 327.395 168.449C318.551 157.732 305.625 151.264 287.594 153.817Z" fill="#08446B"/>
<path d="M270.564 186.4C270.564 186.4 269.034 205.455 278.899 215.323C288.765 225.192 304.582 214.471 307.304 212.092C310.026 209.713 311.557 202.902 311.557 201.185C311.557 199.468 315.385 197.869 314.383 194.294C313.382 190.719 309.279 192.932 309.279 192.932C309.279 192.932 306.218 189.701 303.924 188.424C301.63 187.148 289.386 187.232 286.661 186.554C283.935 185.875 277.373 182.046 277.219 181.533C277.066 181.02 273.391 186.223 270.564 186.4Z" fill="#FDAAB4"/>
<path d="M306.55 210.73L308.674 226.214C308.674 226.214 304.337 230.722 299.915 231.061C295.493 231.401 290.901 228.593 290.901 228.593L290.049 218.135C290.049 218.135 297.532 217.622 306.55 210.73Z" fill="#FDAAB4"/>
<path d="M309.638 225.192C309.638 225.192 339.461 221.193 351.451 244.416C363.44 267.639 365.738 329.913 364.462 334.498C363.186 339.082 336.142 357.212 336.142 357.212L250.417 364.62C250.417 364.62 243.019 295.205 243.787 291.101C244.554 286.997 246.932 247.539 270.968 234.378C270.968 234.378 274.481 230.637 281.399 228.937C288.316 227.236 290.352 227.575 290.352 227.575C292.793 229.65 295.879 230.812 299.082 230.863C304.308 230.863 309.638 225.192 309.638 225.192Z" fill="#71BB8D"/>
<path d="M334.696 357.22C334.696 357.22 372.967 331.698 394.907 341.227C416.847 350.757 410.385 378.149 392.185 387.504C373.984 396.86 364.971 399.073 348.644 401.287C332.317 403.501 285.033 391.592 276.359 383.251C267.685 374.909 270.064 372.041 270.064 372.041L334.696 357.22Z" fill="#81A7BB"/>
<path d="M230.945 350.587C230.945 350.587 191.144 338.675 180.426 366.745C169.709 394.816 221.079 405.88 244.719 407.241C268.359 408.603 288.434 408.942 288.434 408.942L293.534 391.431L230.945 350.587Z" fill="#81A7BB"/>
<path d="M287.929 408.926C287.404 401.348 287.683 391.528 292.928 388.781C296.833 386.741 303.137 385.145 310.874 393.119C316.572 398.989 334.26 396.181 340.212 396.097C346.165 396.012 357.222 399.328 358.752 401.627C360.283 403.925 363.687 409.027 353.054 410.558C338.969 412.578 318.293 410.13 311.638 409.455C303.761 408.661 295.834 408.484 287.929 408.926Z" fill="#FDAAB4"/>
<path d="M270.16 273.513C270.16 273.513 268.141 287.918 270.613 294.724C273.084 301.531 265.06 290.071 265.06 290.071C265.06 290.071 267.455 274.648 270.16 273.513Z" fill="#4D8F6E"/>
<path d="M330.735 270.677C330.735 270.677 332.326 291.432 330.852 296.086C329.378 300.739 325.86 303.91 325.86 303.91L329.604 320.699C329.604 320.699 334.252 317.18 335.161 311.965C336.069 306.75 335.387 296.991 335.161 292.794C334.934 288.596 330.735 270.677 330.735 270.677Z" fill="#4D8F6E"/>
<path d="M204.579 290.697C204.579 290.697 199.987 294.607 199.648 298.372C199.309 302.137 211.723 368.809 211.723 368.809C211.723 368.809 213.936 376.299 218.357 377.656C222.779 379.013 337.931 377.83 337.931 377.83C339.496 376.256 340.662 374.331 341.331 372.215C342.352 368.809 326.361 297.011 326.361 297.011C326.361 297.011 321.769 290.867 317.004 291.036C312.239 291.206 204.579 290.697 204.579 290.697Z" fill="#08446B"/>
<path d="M332.144 359.264L351.451 359.005C351.451 359.005 353.66 361.049 352.896 363.942C352.133 366.834 337.931 377.809 337.931 377.809L332.144 359.264Z" fill="#08446B"/>
<path d="M290.162 219.383C290.162 219.383 297.075 219.383 301.522 217.036C305.968 214.689 306.828 212.653 306.828 212.653C306.911 215.171 306.263 217.658 304.962 219.815C302.196 224.259 296.615 226.646 290.594 226.113L290.162 219.383Z" fill="#FD8C8F"/>
<path d="M265.932 336.897C271.046 336.897 275.192 333.081 275.192 328.374C275.192 323.666 271.046 319.85 265.932 319.85C260.818 319.85 256.673 323.666 256.673 328.374C256.673 333.081 260.818 336.897 265.932 336.897Z" fill="white"/>
<path d="M272.446 190.852C272.446 190.852 275.531 189.555 278.435 189.555C281.338 189.555 282.877 190.852 282.877 190.852" stroke="#4F2926" stroke-miterlimit="10"/>
<path d="M292.868 189.672C292.868 189.672 295.953 188.376 298.856 188.376C301.76 188.376 303.299 189.672 303.299 189.672" stroke="#4F2926" stroke-miterlimit="10"/>
<path d="M275.006 195.267C275.006 195.267 274.021 199.654 278.528 200.026C283.034 200.397 282.477 195.085 282.477 195.085" stroke="#4F2926" stroke-width="2" stroke-miterlimit="10"/>
<path d="M295.008 194.37C295.008 194.37 294.022 198.753 298.525 199.125C303.028 199.496 302.467 194.184 302.467 194.184" stroke="#4F2926" stroke-width="2" stroke-miterlimit="10"/>
<path d="M288.296 193.001C288.296 193.001 286.213 203.144 288.341 205.18C290.469 207.216 293.34 204.485 293.34 204.485" stroke="#4F2926" stroke-miterlimit="10"/>
<path d="M285.655 210.306C287.308 211.471 289.326 211.997 291.337 211.789C294.669 211.417 295.161 209.131 295.161 209.131" stroke="#4F2926" stroke-miterlimit="10"/>
<path d="M302.648 211.11C304.823 211.11 306.586 209.327 306.586 207.127C306.586 204.927 304.823 203.144 302.648 203.144C300.474 203.144 298.711 204.927 298.711 207.127C298.711 209.327 300.474 211.11 302.648 211.11Z" fill="#FD8C8F"/>
<path d="M280.054 212.172C282.229 212.172 283.991 210.389 283.991 208.189C283.991 205.99 282.229 204.207 280.054 204.207C277.88 204.207 276.117 205.99 276.117 208.189C276.117 210.389 277.88 212.172 280.054 212.172Z" fill="#FD8C8F"/>
<path d="M314.905 179.664L308.201 185.296C306.987 186.317 306.829 188.128 307.849 189.343C308.869 190.558 310.68 190.715 311.894 189.695L318.598 184.062C319.812 183.042 319.97 181.23 318.95 180.016C317.93 178.801 316.119 178.643 314.905 179.664Z" fill="#F980C0"/>
<path d="M91.3704 355.079L139.03 355.2L132.738 395.866H98.506L91.3704 355.079Z" fill="#81A7BB"/>
<path d="M148.584 199.63C147.26 197.893 101.409 215.513 88.1031 222.97C88.1031 222.97 80.8343 224.897 80.6041 227.785C80.3739 230.673 90.5221 239.096 84.4768 240.308C78.4315 241.52 73.0929 235.727 73.0929 235.727C73.0929 235.727 62.6903 250.645 67.7705 262.917C72.8506 275.189 86.399 283.85 100.19 284.326C113.98 284.803 133.332 280.234 143.492 266.035C153.652 251.837 153.652 242.457 153.652 242.457C153.652 242.457 154.634 207.571 148.584 199.63Z" fill="#0D5235"/>
<path d="M148.1 202.28C148.1 202.28 138.408 217.436 125.603 226.824C112.797 236.212 103.586 254.495 101.409 266.767C99.2327 279.039 98.0213 291.072 105.524 309.117C113.027 327.162 115.216 332.219 115.216 339.195V346.188" stroke="white" stroke-width="2" stroke-miterlimit="10"/>
<path d="M76.7275 284.573C72.1279 282.65 52.7766 272.782 41.1625 278.801C29.5485 284.819 22.538 294.68 22.7763 297.568C23.0145 300.456 20.8419 311.767 24.7146 312.248C28.5873 312.728 31.0022 318.02 28.5833 320.67C26.1644 323.32 22.0534 323.797 22.0534 323.797C22.0534 323.797 13.8275 340.642 28.5833 362.055C43.3391 383.469 61.7254 371.201 66.0827 367.593C70.4399 363.986 80.8466 352.671 77.939 349.783C75.0315 346.895 67.0357 343.045 73.3435 337.511C79.6512 331.977 85.2079 344.73 85.2079 344.73C85.2079 344.73 97.7911 335.843 99.4832 317.301C101.175 298.76 100.695 293.238 93.1915 288.423C85.6884 283.608 76.7275 284.573 76.7275 284.573Z" fill="#2A8E63"/>
<path d="M119.553 256.914C118.443 256.385 92.7029 276.643 108.65 304.076C124.597 331.508 157.037 309.372 157.037 309.372C157.037 309.372 149.053 302.634 154.133 299.503C159.213 296.372 164.051 302.391 164.051 302.391C164.051 302.391 190.922 288.423 191.164 258.126C191.164 258.126 171.082 247.538 159.956 245.854C148.831 244.169 137.94 246.573 131.652 250.184C131.648 250.164 142.293 267.728 119.553 256.914Z" fill="#2A8E63"/>
<path d="M43.5894 365.667C43.5894 364.455 50.6079 345.695 50.3656 324.52C50.1233 303.345 69.4746 288.164 74.0742 285.777C78.6738 283.389 92.941 280.723 101.652 289.869C110.362 299.014 114.715 307.194 117.377 319.224C120.038 331.254 121.249 344.73 121.249 344.73" stroke="white" stroke-width="2" stroke-miterlimit="10"/>
<path d="M108.908 346.899C108.666 344.73 102.136 320.67 114.231 300.695C126.326 280.719 140.601 278.801 152.938 275.189C165.275 271.578 178.343 267.013 184.146 264.589C189.949 262.166 190.437 261.463 190.437 261.463" stroke="white" stroke-width="2" stroke-miterlimit="10"/>
<path d="M86.8957 342.205C87.3803 341.962 142.898 342.447 142.898 342.447L143.746 357.967L86.5322 357.725L86.8957 342.205Z" fill="white"/>
</svg>
